<?xml version="1.0" encoding="UTF-8"?>
<svg xmlns="http://www.w3.org/2000/svg" xmlns:xlink="http://www.w3.org/1999/xlink" width="375pt" height="374.999991pt" viewBox="0 0 375 374.999991" version="1.2">
<g id="surface1">
<rect x="0" y="0" width="375" height="374.999991" style="fill:rgb(100%,100%,100%);fill-opacity:1;stroke:none;"/>
<rect x="0" y="0" width="375" height="374.999991" style="fill:rgb(100%,100%,100%);fill-opacity:1;stroke:none;"/>
<rect x="0" y="0" width="375" height="374.999991" style="fill:rgb(0%,0%,0%);fill-opacity:1;stroke:none;"/>
<path style=" stroke:none;fill-rule:nonzero;fill:rgb(100%,100%,100%);fill-opacity:1;" d="M 256.515625 113.878906 L 113.878906 113.878906 L 113.878906 260.878906 L 260.878906 260.878906 L 260.878906 113.878906 Z M 256.515625 256.515625 L 118.289062 256.515625 L 118.289062 118.289062 L 256.515625 118.289062 Z M 256.515625 256.515625 "/>
<path style="fill:none;stroke-width:2.653226;stroke-linecap:butt;stroke-linejoin:miter;stroke:rgb(65.098572%,65.098572%,65.098572%);stroke-opacity:1;stroke-miterlimit:4;" d="M 23.547181 41.439928 C 32.89614 41.439928 39.823223 35.044094 39.823223 25.059718 C 39.823223 15.044093 32.89614 8.695134 23.547181 8.695134 C 14.177388 8.695134 7.255513 15.044093 7.255513 25.059718 C 7.255513 35.044094 14.177388 41.439928 23.547181 41.439928 Z M 23.547181 35.377427 C 18.057597 35.377427 13.844055 31.518052 13.844055 25.059718 C 13.844055 18.61701 18.057597 14.783676 23.547181 14.783676 C 29.036764 14.783676 33.250306 18.61701 33.250306 25.059718 C 33.250306 31.518052 29.036764 35.377427 23.547181 35.377427 Z M 52.974266 35.158677 L 52.974266 9.137842 L 46.354474 9.137842 L 46.354474 41.002428 L 62.958642 41.002428 L 62.958642 35.158677 Z M 82.573226 41.439928 C 91.922185 41.439928 98.844061 35.044094 98.844061 25.059718 C 98.844061 15.044093 91.922185 8.695134 82.573226 8.695134 C 73.203434 8.695134 66.27635 15.044093 66.27635 25.059718 C 66.27635 35.044094 73.203434 41.439928 82.573226 41.439928 Z M 82.573226 35.377427 C 77.083642 35.377427 72.870101 31.518052 72.870101 25.059718 C 72.870101 18.61701 77.083642 14.783676 82.573226 14.783676 C 88.06281 14.783676 92.276352 18.61701 92.276352 25.059718 C 92.276352 31.518052 88.06281 35.377427 82.573226 35.377427 Z M 122.203437 41.002428 L 130.031563 41.002428 L 121.541979 28.627427 C 122.31802 28.408677 122.979479 28.143052 123.573229 27.814927 C 126.791979 26.11701 128.094063 22.939926 128.094063 18.950343 C 128.094063 15.158676 126.812812 12.137842 123.703437 10.481592 C 122.052395 9.643051 119.91177 9.137842 115.854478 9.137842 L 105.380519 9.137842 L 105.380519 41.002428 L 111.995103 41.002428 L 111.995103 29.247219 L 114.797187 29.247219 Z M 111.995103 14.669093 L 114.927395 14.669093 C 117.484687 14.669093 118.922187 14.825343 119.932604 15.596176 C 120.88052 16.346176 121.432604 17.580551 121.432604 19.36701 C 121.432604 21.24201 120.88052 22.497218 119.802395 23.247218 C 118.833645 23.934718 117.44302 24.044093 114.927395 24.044093 L 111.995103 24.044093 Z M 137.031563 6.158675 L 141.068022 6.158675 L 135.29198 -1.955908 L 132.026354 0.403467 Z M 135.797188 41.002428 L 142.411772 41.002428 L 142.411772 9.137842 L 135.797188 9.137842 Z M 135.797188 41.002428 " transform="matrix(0.75,0,0,0.75,137.386491,174.955213)"/>
<path style="fill:none;stroke-width:2.653226;stroke-linecap:butt;stroke-linejoin:miter;stroke:rgb(65.098572%,65.098572%,65.098572%);stroke-opacity:1;stroke-miterlimit:4;" d="M 24.380514 57.158679 L 18.599264 49.044095 L 15.338847 51.40347 L 20.344055 57.158679 Z M 31.370098 92.002431 L 38.135723 92.002431 L 26.406556 60.137846 L 18.312805 60.137846 L 6.583638 92.002431 L 13.354472 92.002431 L 15.666972 85.429514 L 29.052389 85.429514 Z M 17.60968 79.893055 L 22.370097 66.377429 L 27.114889 79.893055 Z M 53.979474 92.439931 C 60.922183 92.439931 65.864892 88.981597 65.864892 82.913889 C 65.864892 76.455555 60.198225 74.622222 55.370099 73.169096 C 51.750307 72.085763 48.620099 71.340971 48.620099 68.669096 C 48.620099 66.221179 50.890932 65.096179 53.557599 65.096179 C 56.557599 65.096179 58.698225 66.486804 59.687808 69.554513 L 65.687808 68.075346 C 64.406558 61.965971 58.765933 59.695137 53.161766 59.695137 C 46.765932 59.695137 41.916974 63.049304 41.916974 68.913888 C 41.916974 74.867013 46.922182 76.56493 51.599266 78.018055 C 55.479474 79.210764 59.005516 80.137847 59.02635 83.268055 C 59.052391 85.846181 56.911766 87.038889 54.088849 87.038889 C 50.760724 87.038889 48.286766 85.340972 47.364891 81.679514 L 40.812807 83.179514 C 41.786765 89.153473 47.120099 92.439931 53.979474 92.439931 Z M 53.646141 102.518057 C 55.609683 102.518057 57.286766 100.887848 57.286766 98.856598 C 57.286766 96.872223 55.609683 95.242015 53.646141 95.242015 C 51.640932 95.242015 49.963849 96.872223 49.963849 98.856598 C 49.963849 100.887848 51.640932 102.518057 53.646141 102.518057 Z M 86.755518 57.158679 L 80.974268 49.044095 L 77.713851 51.40347 L 82.71906 57.158679 Z M 93.745102 92.002431 L 100.515936 92.002431 L 88.78156 60.137846 L 80.687809 60.137846 L 68.958642 92.002431 L 75.729476 92.002431 L 78.041976 85.429514 L 91.427393 85.429514 Z M 79.984684 79.893055 L 84.745101 66.377429 L 89.489893 79.893055 Z M 122.859687 75.174305 C 125.349271 73.960763 126.562812 71.669096 126.562812 68.867013 C 126.562812 63.445137 122.948229 60.137846 116.06802 60.137846 L 105.745103 60.137846 L 105.745103 92.002431 L 118.870104 92.002431 C 125.594062 92.002431 128.854479 88.450347 128.854479 83.070139 C 128.854479 78.528472 126.453437 76.169097 122.859687 75.174305 Z M 116.135728 65.627429 C 119.088854 65.627429 120.479479 67.169096 120.479479 69.288888 C 120.479479 71.450346 119.245104 73.122221 116.422187 73.122221 L 112.120103 73.122221 L 112.120103 65.627429 Z M 117.63052 86.330556 L 112.120103 86.330556 L 112.120103 78.215972 L 117.500312 78.215972 C 121.229479 78.215972 122.437812 80.226389 122.437812 82.340972 C 122.437812 84.413889 121.203437 86.330556 117.63052 86.330556 Z M 136.495105 57.158679 L 140.531563 57.158679 L 145.515939 51.40347 L 142.271147 49.044095 Z M 135.193021 92.002431 L 141.807605 92.002431 L 141.807605 60.137846 L 135.193021 60.137846 Z M 135.193021 92.002431 " transform="matrix(0.75,0,0,0.75,137.386491,174.955213)"/>
</g>
</svg>
