<?xml version="1.0" encoding="UTF-8"?>
<svg xmlns="http://www.w3.org/2000/svg" xmlns:xlink="http://www.w3.org/1999/xlink" width="375pt" height="374.999991pt" viewBox="0 0 375 374.999991" version="1.2">
<defs>
<clipPath id="clip1">
  <path d="M 136.617188 123.175781 L 218 123.175781 L 218 252 L 136.617188 252 Z M 136.617188 123.175781 "/>
</clipPath>
</defs>
<g id="surface1">
<rect x="0" y="0" width="375" height="374.999991" style="fill:rgb(100%,100%,100%);fill-opacity:1;stroke:none;"/>
<rect x="0" y="0" width="375" height="374.999991" style="fill:rgb(0%,0%,0%);fill-opacity:1;stroke:none;"/>
<g clip-path="url(#clip1)" clip-rule="nonzero">
<path style=" stroke:none;fill-rule:nonzero;fill:rgb(100%,100%,100%);fill-opacity:1;" d="M 151.605469 142.761719 C 151.710938 142.726562 151.824219 142.691406 151.9375 142.660156 C 151.605469 142.28125 151.234375 141.925781 150.6875 141.746094 C 149.839844 141.476562 149.445312 140.761719 149.222656 139.929688 C 149.148438 141.277344 149.144531 142.617188 149.101562 143.96875 C 149.171875 143.917969 149.222656 143.867188 149.296875 143.828125 C 149.621094 143.671875 149.925781 143.582031 150.261719 143.46875 C 150.734375 143.308594 151.121094 142.9375 151.605469 142.761719 Z M 153.710938 144.046875 C 153.515625 144.03125 153.339844 143.992188 153.1875 143.898438 C 153.144531 143.875 153.101562 143.835938 153.058594 143.8125 C 153.054688 143.8125 153.046875 143.816406 153.042969 143.816406 C 152.542969 143.941406 152.046875 144.046875 151.609375 144.332031 C 151.289062 144.53125 150.996094 144.730469 150.632812 144.828125 C 149.972656 145.007812 149.570312 145.523438 149.007812 145.855469 C 148.996094 145.996094 148.992188 146.128906 148.984375 146.269531 C 148.917969 147.03125 147.765625 148.238281 148.546875 148.992188 C 148.761719 149.191406 148.929688 149.394531 149.082031 149.597656 C 149.496094 147.734375 150.101562 145.917969 151.886719 145.589844 C 151.941406 145.507812 152.015625 145.429688 152.121094 145.359375 C 152.667969 145.011719 153.195312 144.535156 153.710938 144.046875 Z M 154.652344 167.261719 C 154.621094 167.121094 154.589844 166.980469 154.5625 166.851562 C 154.308594 165.589844 154.269531 164.585938 153.621094 163.390625 C 153.222656 162.664062 153.042969 161.851562 152.800781 161.066406 C 152.710938 161.132812 152.617188 161.207031 152.523438 161.273438 C 150.210938 163.035156 150.160156 164.847656 152.449219 166.105469 C 153.089844 166.453125 153.875 167.089844 154.652344 167.261719 Z M 159.1875 170.089844 C 159.355469 170.933594 160.277344 170.890625 161.011719 170.726562 C 160.738281 169.941406 160.480469 169.144531 160.171875 168.371094 C 159.789062 168.9375 159.449219 169.515625 159.1875 170.089844 Z M 165.140625 128.691406 C 163.671875 128.097656 161.699219 128.726562 160.207031 129.195312 C 158.714844 129.671875 153.511719 132.898438 152.773438 134.566406 C 152.992188 134.726562 153.199219 134.894531 153.386719 135.085938 C 153.617188 134.824219 153.839844 134.542969 154.039062 134.246094 C 154.613281 133.414062 155.359375 132.386719 156.398438 132.128906 C 157.921875 131.75 159.199219 130.824219 160.671875 130.367188 C 162.183594 129.894531 163.644531 129.234375 165.140625 128.691406 Z M 164.238281 145.675781 C 163.289062 145.652344 162.160156 146.179688 161.144531 146.890625 C 161.160156 146.9375 161.175781 146.984375 161.183594 147.042969 C 161.199219 147.53125 161.535156 147.839844 161.300781 148.414062 C 160.960938 149.214844 160.464844 150.074219 159.828125 150.675781 C 158.972656 151.488281 158.261719 152.40625 157.46875 153.277344 C 156.792969 154.023438 156.011719 154.378906 155.195312 154.917969 C 154.433594 155.421875 153.730469 154.203125 154.480469 153.703125 C 155.363281 153.117188 156.101562 152.726562 156.804688 151.886719 C 157.339844 151.253906 157.878906 150.597656 158.480469 150.019531 C 158.671875 149.835938 160.101562 148.128906 160.058594 148.070312 C 160.007812 148.011719 159.96875 147.941406 159.933594 147.871094 C 159.390625 148.378906 158.960938 148.886719 158.71875 149.308594 C 158.578125 149.558594 158.214844 149.75 157.925781 149.636719 C 156.488281 149.046875 155.320312 147.839844 153.902344 147.207031 C 150.515625 145.710938 150.695312 150.476562 149.964844 152.359375 C 148.996094 154.8125 150.007812 156.269531 150.207031 158.597656 C 150.265625 159.394531 150.507812 160.398438 150.625 161.359375 C 151.175781 160.835938 151.734375 160.347656 152.019531 159.691406 C 152.5 158.609375 154.121094 158.058594 154.808594 157.1875 C 155.960938 155.746094 157 154.074219 158.433594 152.878906 C 160.785156 150.914062 162.339844 148.117188 164.238281 145.675781 Z M 178.769531 142.390625 C 178.808594 141.757812 179.027344 141.191406 178.996094 140.546875 C 178.976562 140.0625 178.976562 139.746094 178.660156 139.347656 C 178.613281 139.292969 178.574219 139.226562 178.539062 139.164062 C 176.332031 140.558594 173.171875 141.207031 170.699219 141.242188 C 169.789062 141.253906 169.789062 139.84375 170.699219 139.832031 C 172.855469 139.804688 175.78125 139.191406 177.773438 137.976562 C 176.414062 136.519531 173.035156 136.097656 171.488281 136.316406 C 168.871094 136.691406 167.332031 138.59375 164.859375 139.226562 C 162.40625 139.84375 160.230469 141.433594 158.011719 142.671875 C 156.496094 143.523438 155.285156 144.730469 153.953125 145.769531 C 154.730469 146.011719 155.453125 146.394531 156.164062 146.824219 C 156.640625 146.113281 157.539062 145.625 157.96875 144.84375 C 158.367188 144.117188 158.585938 143.457031 159.265625 142.949219 C 159.996094 142.390625 160.804688 141.796875 161.71875 141.625 C 162.265625 141.523438 162.6875 141.765625 163.261719 141.539062 C 163.609375 141.40625 163.769531 141.382812 164.132812 141.359375 C 165.042969 141.316406 165.039062 142.722656 164.132812 142.769531 C 163.757812 142.789062 163.4375 143.039062 163.058594 143.058594 C 162.613281 143.078125 161.824219 142.9375 161.453125 143.179688 C 160.90625 143.542969 159.957031 143.898438 159.703125 144.554688 C 159.421875 145.292969 158.917969 146.023438 158.378906 146.597656 C 158.203125 146.78125 157.480469 147.410156 157.308594 147.625 C 157.539062 147.871094 157.78125 148.117188 157.894531 147.96875 C 158.292969 147.453125 158.738281 146.863281 159.285156 146.511719 C 161.558594 145.023438 163.457031 142.925781 165.605469 144.386719 C 165.820312 143.261719 167.039062 142.15625 168.195312 142.335938 C 168.449219 142.371094 168.695312 142.425781 168.933594 142.5 C 168.9375 142.488281 168.9375 142.484375 168.945312 142.476562 C 169.496094 141.40625 171.078125 141.746094 172.058594 141.808594 C 174.171875 141.945312 175.648438 143.335938 177.765625 142.648438 C 178.117188 142.53125 178.449219 142.457031 178.769531 142.390625 Z M 179.613281 152.300781 C 180.917969 152.371094 182.039062 153.453125 182.855469 154.710938 C 182.738281 152.308594 178.933594 150.394531 177.195312 149.640625 C 175.035156 148.699219 172.800781 147.679688 170.507812 147.105469 C 169.820312 146.933594 167.949219 146.097656 166.683594 145.929688 C 166.539062 146.386719 165.964844 146.695312 165.554688 146.246094 C 163.835938 148.382812 162.523438 150.820312 160.761719 152.902344 C 160.265625 153.492188 159.378906 153.765625 158.867188 154.335938 C 158.460938 154.832031 158.078125 155.339844 157.6875 155.847656 C 158.917969 155.023438 160.152344 154.203125 161.339844 153.316406 C 162.476562 152.488281 163.695312 151.015625 165.089844 150.566406 C 166.195312 150.21875 167.335938 149.960938 168.445312 149.652344 C 169.320312 149.40625 169.691406 150.765625 168.820312 151.011719 C 163.9375 152.375 159.632812 156.078125 155.5 159.050781 C 155.359375 159.152344 155.21875 159.191406 155.089844 159.179688 C 154.757812 159.523438 154.375 159.847656 153.988281 160.15625 C 153.988281 160.164062 153.988281 160.164062 153.988281 160.167969 C 154.511719 161.605469 155.199219 162.984375 155.730469 164.414062 C 157.371094 162.703125 159.214844 161.171875 160.984375 159.617188 C 163.078125 157.800781 164.9375 155.921875 167.363281 154.546875 C 168.152344 154.097656 168.859375 155.316406 168.074219 155.761719 C 165.570312 157.175781 163.640625 159.226562 161.445312 161.066406 C 159.601562 162.601562 157.730469 164.253906 156.117188 166.035156 C 156.316406 167.511719 156.523438 169.609375 157.601562 170.265625 C 158.632812 167.199219 161.625 164.515625 163.457031 161.992188 C 165.691406 158.910156 168.332031 157.734375 171.328125 155.542969 C 172.761719 154.496094 174.019531 152.878906 175.878906 152.617188 C 177.132812 152.441406 178.34375 152.25 179.613281 152.300781 Z M 182.613281 142.785156 C 182.945312 140.820312 183.445312 136.410156 181.429688 135.25 C 180.292969 134.597656 178.910156 133.542969 177.550781 133.511719 C 176.644531 133.488281 176.644531 132.082031 177.550781 132.097656 C 178.71875 132.128906 180.484375 132.765625 181.730469 133.628906 C 181.738281 133.617188 181.746094 133.609375 181.746094 133.601562 C 180.71875 132.195312 178.84375 130.839844 177.855469 130.167969 C 176.449219 129.195312 174.402344 128.871094 172.59375 128.898438 C 173.28125 129.648438 173.835938 130.507812 174.109375 131.316406 C 174.410156 132.179688 173.054688 132.546875 172.761719 131.691406 C 172.046875 129.625 168.625 127.179688 166.574219 128.820312 C 166.71875 129.171875 166.621094 129.65625 166.152344 129.808594 C 163.59375 130.667969 161.183594 131.804688 158.679688 132.785156 C 156.164062 133.773438 154.242188 135.890625 152.621094 138.0625 C 152.082031 138.777344 150.867188 138.074219 151.414062 137.347656 C 151.734375 136.910156 152.09375 136.511719 152.453125 136.121094 C 151.773438 135.257812 149.304688 134.519531 149.878906 136.367188 C 150.207031 137.398438 150.242188 138.53125 150.605469 139.542969 C 151.042969 140.777344 151.964844 140.460938 152.773438 141.230469 C 153.089844 141.535156 153.207031 141.714844 153.460938 142.089844 C 153.980469 142.875 154.566406 142.574219 155.414062 142.386719 C 155.566406 142.347656 155.707031 142.359375 155.820312 142.410156 C 157.0625 141.679688 158.425781 141.164062 159.574219 140.371094 C 160.75 139.542969 161.402344 138.648438 162.804688 138.296875 C 164.75 137.796875 166.121094 137.324219 167.617188 135.929688 C 169.238281 134.417969 172.710938 134.53125 174.6875 135.039062 C 176.4375 135.480469 178.53125 136.109375 179.382812 137.804688 C 179.398438 137.851562 179.402344 137.898438 179.417969 137.9375 C 179.566406 138.136719 179.714844 138.335938 179.847656 138.542969 C 180.160156 137.808594 180.507812 136.859375 179.636719 136.476562 C 178.71875 136.070312 177.628906 136.070312 176.738281 135.632812 C 175.910156 135.226562 175.054688 134.683594 174.164062 134.402344 C 173.304688 134.132812 173.671875 132.769531 174.539062 133.050781 C 175.722656 133.421875 176.761719 134.234375 177.972656 134.496094 C 179.089844 134.746094 180.410156 135.007812 181.253906 135.828125 C 181.746094 136.308594 181.695312 137.914062 181.433594 138.441406 C 180.855469 139.605469 180.625 140.957031 180.558594 142.269531 C 181.292969 142.324219 181.964844 142.507812 182.613281 142.785156 Z M 184.265625 169.257812 C 184.5625 166.855469 184.648438 164.691406 184.121094 162.304688 C 183.792969 160.851562 183.164062 159.480469 182.898438 158.019531 C 182.898438 158.007812 182.898438 157.996094 182.898438 157.984375 C 182.832031 157.917969 182.78125 157.828125 182.75 157.714844 C 181.6875 154.171875 177.800781 152.324219 174.597656 154.699219 C 172.652344 156.148438 170.808594 157.445312 168.761719 158.742188 C 166.261719 160.332031 165.117188 162.503906 163.222656 164.632812 C 162.59375 165.347656 161.839844 166.175781 161.132812 167.070312 C 161.136719 167.082031 161.152344 167.101562 161.160156 167.121094 C 162.40625 169.941406 163.566406 172.832031 164.582031 175.78125 C 166.390625 181.03125 171.71875 184.363281 177.179688 182.707031 C 182.378906 181.125 183.691406 173.84375 184.265625 169.257812 Z M 186.824219 248.5625 C 186.578125 247.972656 186.4375 247.375 186.199219 246.722656 C 186.03125 246.253906 185.785156 245.851562 185.523438 245.464844 C 185.273438 245.84375 185.019531 246.253906 184.664062 246.523438 C 184.351562 246.765625 183.980469 246.847656 183.648438 247.058594 C 183.453125 247.183594 183.378906 247.402344 183.210938 247.546875 C 182.265625 248.347656 181.085938 248.90625 179.84375 248.996094 C 178.933594 249.0625 178.9375 247.648438 179.84375 247.585938 C 180.976562 247.507812 181.789062 246.867188 182.546875 246.113281 C 182.878906 245.769531 183.390625 245.742188 183.75 245.464844 C 183.964844 245.304688 184.203125 244.925781 184.386719 244.652344 C 182.5625 243.972656 178.128906 246.953125 176.746094 247.648438 C 174.402344 248.835938 171.484375 248.765625 168.9375 248.765625 C 168.039062 248.769531 168.039062 247.359375 168.9375 247.355469 C 171.023438 247.355469 173.339844 247.453125 175.324219 246.699219 C 176.992188 246.066406 178.390625 244.914062 180.113281 244.398438 C 181.410156 244.011719 182.878906 243.070312 184.292969 243.210938 C 184.199219 242.921875 184.136719 242.652344 184.113281 242.402344 C 181.617188 239.976562 176.941406 240.050781 173.816406 239.660156 C 172.746094 239.523438 172.023438 238.917969 170.96875 238.625 C 169.53125 238.222656 168.054688 238.082031 166.617188 237.71875 C 164.875 237.285156 162.648438 237.375 160.890625 237.890625 C 160.8125 238.3125 160.730469 238.742188 160.660156 239.167969 C 162.273438 239.167969 163.796875 239.183594 165.359375 239.652344 C 166 239.847656 166.640625 239.917969 167.296875 240.058594 C 167.816406 240.167969 168.410156 240.621094 168.917969 240.804688 C 169.765625 241.105469 169.414062 242.464844 168.5625 242.160156 C 166.515625 241.429688 163.09375 240.9375 161.292969 240.714844 C 161.464844 240.925781 161.621094 241.132812 161.710938 241.339844 C 161.925781 241.847656 162.035156 242.328125 162.121094 242.828125 C 164.257812 243.136719 166.296875 244.023438 168.4375 244.398438 C 169.332031 244.550781 168.949219 245.910156 168.066406 245.757812 C 166.855469 245.542969 165.632812 245.304688 164.464844 244.910156 C 163.761719 244.675781 163.054688 244.421875 162.328125 244.277344 C 162.519531 245.28125 162.878906 246.246094 162.867188 247.277344 C 162.867188 247.707031 162.816406 248.382812 162.773438 248.917969 C 163.1875 249.058594 163.605469 249.1875 163.941406 249.480469 C 163.964844 249.492188 163.964844 249.503906 163.976562 249.515625 C 165.847656 249.84375 168.804688 249.273438 170.160156 249.273438 C 172.75 249.273438 175.339844 249.21875 177.933594 249.214844 C 180 249.207031 182.28125 249.335938 184.339844 249.117188 C 185.183594 249.027344 185.996094 248.730469 186.824219 248.5625 Z M 187.09375 150.839844 C 187.121094 150.148438 188.476562 147.722656 188.171875 147.570312 C 187.617188 147.289062 186.949219 147.042969 186.492188 146.597656 C 185.40625 145.53125 183.800781 144.675781 182.441406 144.019531 C 180.191406 142.941406 178.578125 143.976562 176.449219 144.503906 C 175.515625 144.738281 171.253906 142.234375 170.289062 143.03125 C 171.328125 143.542969 172.316406 144.160156 173.46875 144.445312 C 174.347656 144.667969 173.976562 146.027344 173.097656 145.808594 C 172.324219 145.613281 167.738281 142.769531 167.0625 144.277344 C 168.015625 144.503906 168.957031 145.269531 170.304688 145.609375 C 172.929688 146.257812 176.347656 147.226562 178.625 148.746094 C 179.4375 149.300781 180.40625 149.566406 181.269531 149.988281 C 181.085938 149.261719 180.789062 148.675781 180.089844 148.222656 C 179.484375 147.808594 178.886719 147.410156 178.207031 147.113281 C 178.152344 147.089844 176.914062 146.585938 177.066406 146.5 C 176.28125 146.953125 175.574219 145.730469 176.363281 145.289062 C 176.886719 144.984375 177.441406 145.210938 177.949219 145.457031 C 178.824219 145.894531 179.679688 146.246094 180.5 146.796875 C 181.277344 147.320312 182.050781 147.839844 182.378906 148.765625 C 182.507812 149.132812 182.628906 150.039062 182.734375 150.511719 C 182.75 150.515625 182.753906 150.523438 182.765625 150.527344 C 183.445312 150.664062 184.210938 150.984375 184.773438 151.3125 C 185.378906 151.679688 185.929688 152.21875 186.082031 152.941406 C 186.25 153.730469 186.558594 154.324219 186.566406 155.152344 C 186.570312 155.890625 186.179688 156.914062 185.855469 157.574219 C 185.457031 158.390625 184.25 157.675781 184.648438 156.863281 C 184.886719 156.371094 185.191406 155.414062 185.160156 154.859375 C 185.132812 154.390625 184.902344 154.097656 184.804688 153.660156 C 184.621094 152.804688 184.152344 152.53125 183.386719 152.289062 C 183.3125 152.269531 183.230469 152.230469 183.160156 152.1875 C 183.238281 152.339844 183.332031 152.476562 183.457031 152.59375 C 184.570312 153.585938 184.417969 155.351562 183.832031 156.582031 C 183.933594 156.839844 184.019531 157.085938 184.09375 157.316406 C 184.164062 157.394531 184.226562 157.503906 184.25 157.644531 C 184.351562 158.179688 184.480469 158.707031 184.609375 159.234375 C 187.296875 158.539062 187.015625 152.828125 187.09375 150.839844 Z M 190.265625 148.648438 C 190.265625 146.449219 191.105469 144.3125 189.484375 142.410156 C 188.21875 140.929688 187.273438 138.644531 185.8125 137.371094 C 185.191406 136.824219 184.496094 136.382812 183.804688 135.925781 C 183.800781 135.945312 183.792969 135.964844 183.792969 135.980469 C 183.777344 136.089844 183.734375 136.183594 183.6875 136.253906 C 184.515625 138.441406 184.351562 140.9375 183.945312 143.246094 C 183.933594 143.324219 183.910156 143.378906 183.878906 143.441406 C 184.265625 143.664062 184.644531 143.90625 185.039062 144.160156 C 185.519531 142.722656 185.328125 140.804688 184.957031 139.347656 C 184.734375 138.464844 186.082031 138.09375 186.308594 138.96875 C 186.53125 139.851562 186.566406 140.714844 186.679688 141.605469 C 186.800781 142.554688 186.691406 143.636719 186.386719 144.554688 C 186.339844 144.695312 186.257812 144.804688 186.160156 144.878906 C 186.679688 145.203125 187.222656 145.519531 187.820312 145.820312 C 189.398438 146.617188 189.761719 146.847656 189.761719 148.648438 C 189.761719 149.085938 189.453125 149.601562 189.179688 149.910156 C 188.390625 150.792969 188.425781 151.953125 188.449219 153.058594 C 188.796875 152.5 189.152344 151.832031 189.441406 151.179688 C 189.460938 151.054688 189.515625 150.945312 189.589844 150.847656 C 189.988281 149.917969 190.265625 149.058594 190.265625 148.648438 Z M 192.457031 139.164062 C 192.152344 138.8125 191.625 138.371094 191.515625 137.972656 C 191.308594 137.214844 191.484375 136.300781 191.332031 135.519531 C 190.917969 133.410156 189.183594 132.828125 187.46875 131.871094 C 186.117188 131.113281 184.558594 130.660156 183.386719 129.632812 C 182.679688 129.011719 181.660156 124.414062 180.746094 127.636719 C 180.535156 128.382812 179.507812 128.21875 179.382812 127.597656 C 179.269531 127.550781 179.167969 127.46875 179.078125 127.347656 C 178.753906 126.84375 178.128906 125.183594 177.398438 125.621094 C 176.542969 126.132812 175.828125 126.84375 175.410156 127.753906 C 177.027344 128.089844 178.578125 128.734375 179.894531 129.746094 C 180.605469 130.304688 181.40625 131.742188 182.097656 132.046875 C 182.703125 132.300781 183.148438 132.527344 183.648438 132.945312 C 184.082031 133.304688 184.140625 133.882812 184.082031 134.46875 C 185.484375 135.574219 186.839844 136.347656 187.917969 137.960938 C 188.542969 138.902344 189.183594 139.714844 189.785156 140.53125 C 190.65625 140.183594 191.734375 139.816406 192.457031 139.164062 Z M 192.597656 159.371094 C 193.722656 158.878906 193.011719 159.234375 192.65625 158.25 C 192.421875 157.59375 192.253906 156.914062 192.015625 156.261719 C 191.554688 154.984375 190.871094 153.917969 190.203125 152.804688 C 189.734375 153.839844 189.160156 154.832031 188.300781 155.382812 C 187.964844 157.558594 187.003906 160.144531 184.984375 160.601562 C 185.234375 161.492188 185.484375 162.378906 185.671875 163.296875 C 186.707031 162.660156 187.570312 161.695312 188.695312 161.230469 C 190.050781 160.671875 191.257812 159.945312 192.597656 159.371094 Z M 197.195312 151.128906 C 196.554688 151.347656 195.863281 151.492188 195.433594 151.179688 C 194.257812 150.308594 192.921875 149.777344 191.703125 148.984375 C 191.546875 149.566406 191.355469 150.117188 191.128906 150.605469 C 191.050781 150.785156 190.964844 150.976562 190.886719 151.179688 C 191.90625 153.09375 192.882812 154.703125 193.625 156.800781 C 193.722656 157.078125 193.917969 157.40625 194.109375 157.773438 C 194.765625 156.472656 195.046875 154.941406 195.851562 153.722656 C 196.304688 153.042969 196.828125 152.070312 197.195312 151.128906 Z M 198.347656 143.140625 C 198.347656 141.855469 199.308594 138.117188 197.730469 137.28125 C 197.761719 137.359375 197.796875 137.433594 197.824219 137.515625 C 198.097656 138.515625 197.84375 139.664062 197.644531 140.675781 C 197.480469 141.484375 197.175781 142.035156 196.507812 142.519531 C 195.773438 143.058594 195.074219 141.832031 195.792969 141.308594 C 196.367188 140.882812 196.75 138.203125 196.351562 137.664062 C 196.085938 137.308594 195.148438 136.230469 194.398438 135.691406 C 194.511719 136.226562 194.722656 136.789062 194.699219 137.296875 C 194.664062 137.964844 194.492188 138.605469 194.191406 139.199219 C 193.507812 140.578125 191.929688 141.148438 190.582031 141.703125 C 191.117188 142.5625 191.578125 143.480469 191.875 144.597656 C 192.105469 145.460938 192.125 146.488281 191.996094 147.496094 C 192 147.496094 192 147.503906 192.011719 147.503906 C 192.605469 147.925781 193.238281 148.273438 193.867188 148.609375 C 193.917969 148.542969 193.972656 148.472656 194.046875 148.417969 C 195.253906 147.511719 194.585938 146.359375 193.6875 145.539062 C 192.96875 144.882812 192.421875 144.148438 191.886719 143.339844 C 191.386719 142.582031 192.601562 141.875 193.101562 142.628906 C 193.636719 143.4375 194.191406 144.105469 194.921875 144.742188 C 195.433594 145.191406 195.863281 145.808594 196.070312 146.464844 C 196.425781 147.605469 195.945312 148.570312 195.136719 149.316406 C 195.175781 149.339844 195.210938 149.355469 195.25 149.378906 C 196.164062 149.933594 197.042969 149.625 197.992188 149.308594 C 198.53125 147.539062 198.347656 144.804688 198.347656 143.140625 Z M 200.769531 248.691406 C 199.964844 246.648438 198.800781 243.777344 197.402344 242.402344 C 196.070312 241.09375 194.429688 239.894531 192.898438 238.792969 C 191.613281 237.875 188.914062 235.65625 188.582031 238.203125 C 189.503906 238.316406 190.160156 238.792969 191.023438 239.1875 C 191.921875 239.605469 192.910156 240.050781 193.492188 240.910156 C 194.058594 241.738281 194.5625 242.636719 195.082031 243.5 C 195.546875 244.277344 194.339844 244.988281 193.867188 244.207031 C 193.15625 243.011719 192.476562 241.390625 191.152344 240.785156 C 190.105469 240.308594 188.949219 239.277344 188.144531 240.148438 C 188.539062 240.351562 188.882812 240.59375 189.101562 240.832031 C 189.800781 241.570312 190.683594 242.078125 191.386719 242.816406 C 192.046875 243.519531 192.589844 244.457031 193.101562 245.257812 C 193.589844 246.027344 192.375 246.734375 191.886719 245.972656 C 191.082031 244.699219 187.347656 239.660156 185.671875 241.671875 C 185.597656 241.761719 185.558594 241.855469 185.523438 241.964844 C 185.570312 242.113281 185.550781 242.273438 185.496094 242.414062 C 185.632812 243.507812 187.003906 245.027344 187.3125 245.71875 C 187.695312 246.558594 187.832031 247.421875 188.230469 248.226562 C 188.742188 248.539062 189.242188 248.871094 189.710938 249.246094 C 191.074219 250.347656 193.753906 249.433594 195.226562 249.214844 C 197.019531 248.941406 198.976562 249.011719 200.769531 248.691406 Z M 216.277344 248.578125 C 216.871094 248.597656 215.027344 243.507812 214.871094 243.214844 C 214.074219 241.761719 212.839844 240.816406 211.347656 240.175781 C 211.070312 240.058594 210.722656 239.984375 210.566406 239.695312 C 209.835938 238.390625 209.117188 237.464844 208.1875 236.386719 C 207.765625 236.628906 207.097656 236.453125 207.113281 235.820312 C 207.226562 231.554688 202.472656 227.847656 199.851562 224.992188 C 198.796875 223.847656 197.957031 222.472656 197.09375 221.167969 C 197.003906 221.121094 196.914062 221.046875 196.84375 220.945312 C 196.480469 220.421875 196.136719 219.890625 195.816406 219.351562 C 195.113281 218.382812 194.40625 217.394531 193.949219 216.351562 C 193.851562 216.132812 193.867188 215.921875 193.949219 215.746094 C 193.523438 214.789062 193.125 213.808594 192.746094 212.820312 C 191.820312 210.375 190.054688 208.601562 188.550781 206.59375 C 187.886719 207.007812 187.144531 206.917969 186.390625 206.90625 C 185.492188 206.890625 185.492188 205.484375 186.390625 205.496094 C 186.832031 205.503906 187.332031 205.613281 187.742188 205.429688 C 187.644531 205.273438 187.539062 205.132812 187.449219 204.976562 C 186.402344 203.21875 185.53125 201.339844 184.765625 199.433594 C 184.699219 199.648438 184.519531 199.820312 184.292969 199.910156 C 184.070312 200.011719 183.816406 200.015625 183.574219 200.015625 C 182.671875 200.015625 182.671875 198.609375 183.574219 198.609375 C 183.738281 198.609375 183.777344 198.613281 183.921875 198.558594 C 184.097656 198.480469 184.289062 198.523438 184.453125 198.621094 C 184.292969 198.210938 184.132812 197.804688 183.984375 197.398438 C 183.199219 195.246094 181.933594 194.277344 180.195312 192.929688 C 179.066406 192.050781 177.421875 190.191406 175.808594 190.21875 C 175.773438 190.445312 175.738281 190.667969 175.699219 190.894531 C 175.75 190.925781 175.796875 190.960938 175.835938 191.011719 C 177.5625 192.894531 178.703125 195.363281 178.410156 198.007812 C 178.203125 199.859375 175.769531 200.128906 174.53125 199.460938 C 171.542969 197.855469 168.691406 195.410156 166.078125 193.25 C 163.359375 190.992188 158.28125 187.894531 154.582031 189.96875 C 154.449219 190.042969 154.324219 190.070312 154.210938 190.0625 C 152.21875 191.925781 150.363281 193.992188 148.632812 196.078125 C 147.292969 197.695312 146.269531 199.558594 145.34375 201.429688 C 144.832031 202.445312 144.8125 204.480469 144.835938 205.53125 C 144.847656 205.578125 144.863281 205.617188 144.871094 205.660156 C 144.882812 205.785156 144.898438 205.902344 144.921875 206.015625 C 144.996094 206.042969 145.058594 206.078125 145.125 206.121094 C 145.386719 205.507812 145.675781 204.644531 145.757812 204.480469 C 146.046875 203.917969 146.410156 202.84375 146.871094 202.414062 C 148.074219 201.277344 148.84375 199.472656 150.289062 198.625 C 151.078125 198.171875 151.777344 199.394531 150.996094 199.84375 C 150.402344 200.191406 149.925781 200.9375 149.503906 201.453125 C 149.25 201.769531 148.816406 202.238281 148.441406 202.691406 C 152.136719 201.8125 156.332031 202.386719 159.828125 203.6875 C 160.632812 203.984375 160.328125 205.246094 159.550781 205.066406 C 159.394531 205.347656 159.101562 205.515625 158.765625 205.421875 C 158.445312 205.335938 158.191406 204.980469 158.261719 204.640625 C 154.796875 203.570312 150.828125 203.261719 147.445312 204.460938 C 147.027344 205.402344 146.585938 206.382812 146.101562 207.242188 C 146.070312 207.292969 146.039062 207.339844 146 207.394531 C 149.417969 206.488281 152.929688 206.527344 156.4375 206.722656 C 157.332031 206.765625 157.339844 208.175781 156.4375 208.128906 C 152.734375 207.921875 148.972656 207.890625 145.394531 209.039062 C 145.382812 209.53125 145.355469 210.019531 145.335938 210.503906 C 146.601562 209.964844 148.296875 209.550781 149.351562 209.550781 C 151.285156 209.550781 153.117188 209.554688 155.023438 209.886719 C 155.914062 210.03125 155.535156 211.390625 154.652344 211.238281 C 152.96875 210.953125 150.632812 210.609375 148.921875 211.035156 C 147.839844 211.3125 146.269531 211.546875 145.253906 212.125 C 145.21875 212.648438 145.1875 213.175781 145.128906 213.695312 C 145.710938 213.492188 146.308594 213.335938 146.910156 213.136719 C 148.058594 212.753906 149.222656 212.757812 150.378906 212.488281 C 151.261719 212.28125 151.632812 213.640625 150.753906 213.84375 C 148.839844 214.296875 146.710938 214.335938 144.9375 215.316406 C 144.90625 215.519531 144.894531 215.726562 144.863281 215.929688 C 144.832031 216.113281 144.804688 216.289062 144.765625 216.472656 C 146.488281 215.710938 148.433594 215.433594 150.148438 214.679688 C 151.40625 214.121094 153.839844 215.175781 155.078125 215.652344 C 158.808594 217.089844 162.429688 219.722656 165.429688 222.488281 C 165.515625 222.15625 165.589844 221.835938 165.65625 221.519531 C 164.816406 220.75 164.070312 219.886719 163.261719 219.089844 C 162.894531 218.726562 162.492188 218.414062 162.085938 218.097656 C 161.632812 218.320312 160.992188 217.875 161.097656 217.3125 C 160.867188 217.128906 160.648438 216.933594 160.441406 216.726562 C 158.261719 214.53125 155.539062 214.660156 152.820312 213.84375 C 151.953125 213.585938 152.328125 212.226562 153.195312 212.488281 C 154.132812 212.769531 155.179688 212.921875 156.226562 213.113281 C 156.382812 212.347656 157.625 212.382812 157.597656 213.242188 C 157.597656 213.296875 157.585938 213.351562 157.578125 213.398438 C 158.753906 213.707031 159.871094 214.160156 160.742188 215.042969 C 161.132812 215.425781 161.535156 215.816406 161.945312 216.214844 C 162.359375 216.160156 162.816406 216.53125 162.765625 216.996094 C 163.824219 217.992188 164.910156 218.976562 165.976562 219.925781 C 166 219.789062 166.023438 219.648438 166.042969 219.519531 C 166.144531 218.875 166.269531 218.203125 166.402344 217.515625 C 166.164062 217.628906 165.871094 217.625 165.621094 217.410156 C 164.960938 216.847656 164.066406 216.683594 163.453125 216.070312 C 163.316406 215.941406 163.175781 215.8125 163.03125 215.683594 C 162.9375 215.636719 162.859375 215.558594 162.800781 215.480469 C 162.347656 215.097656 161.878906 214.734375 161.429688 214.347656 C 160.683594 213.714844 159.800781 212.921875 158.882812 212.519531 C 158.546875 212.371094 158.199219 212.265625 157.859375 212.148438 C 157.515625 212.226562 157.085938 212.089844 157.050781 211.742188 C 157.035156 211.726562 157.015625 211.722656 157 211.703125 C 156.320312 211.1875 156.921875 210.054688 157.601562 210.425781 C 157.84375 210.40625 158.097656 210.523438 158.203125 210.785156 C 158.785156 211.070312 159.449219 211.222656 159.992188 211.5625 C 160.851562 212.101562 161.644531 212.703125 162.417969 213.359375 C 162.628906 213.527344 162.839844 213.722656 163.058594 213.933594 C 163.117188 213.785156 163.164062 213.632812 163.222656 213.5 C 163.390625 213.152344 163.878906 213.0625 164.1875 213.246094 C 164.535156 213.457031 164.597656 213.859375 164.4375 214.207031 C 164.347656 214.402344 164.3125 214.628906 164.207031 214.820312 C 164.199219 214.839844 164.183594 214.867188 164.167969 214.890625 C 164.414062 215.082031 164.671875 215.246094 164.929688 215.351562 C 165.605469 215.636719 166.066406 215.945312 166.617188 216.417969 C 166.773438 215.644531 166.921875 214.847656 167.050781 214.054688 C 166.398438 213.5 165.710938 213.117188 164.980469 212.664062 C 164.210938 212.195312 163.609375 211.527344 162.851562 211.042969 C 161.664062 210.273438 160.253906 209.503906 158.890625 209.003906 C 158.773438 209.128906 158.609375 209.203125 158.417969 209.203125 C 158.050781 209.203125 157.699219 208.882812 157.71875 208.496094 C 157.738281 208.191406 157.804688 207.90625 157.894531 207.621094 C 158.019531 207.253906 158.378906 207.019531 158.761719 207.132812 C 158.992188 207.191406 159.1875 207.394531 159.25 207.632812 C 160.890625 208.21875 162.683594 209.152344 164.039062 210.183594 C 165.121094 211.019531 166.21875 211.636719 167.269531 212.421875 C 167.351562 211.597656 167.398438 210.785156 167.371094 209.988281 C 166.585938 209.15625 165.476562 208.636719 164.535156 207.996094 C 163.578125 207.332031 162.765625 206.675781 161.664062 206.269531 C 160.820312 205.953125 161.1875 204.589844 162.035156 204.910156 C 162.605469 205.121094 163.265625 205.320312 163.757812 205.683594 C 164.324219 206.121094 164.914062 206.660156 165.5625 206.972656 C 166.074219 207.214844 166.617188 207.542969 167.125 207.90625 C 166.996094 207.339844 166.824219 206.78125 166.578125 206.25 C 166.554688 206.199219 166.539062 206.144531 166.511719 206.09375 C 166.105469 205.875 165.691406 205.710938 165.230469 205.507812 C 164.628906 205.246094 163.953125 204.59375 163.296875 204.527344 C 162.40625 204.445312 162.394531 203.035156 163.296875 203.121094 C 164.15625 203.203125 164.730469 203.699219 165.480469 204.074219 C 165.550781 204.105469 165.617188 204.128906 165.683594 204.164062 C 165.078125 202.828125 164.390625 201.757812 162.710938 200.914062 C 162.09375 200.605469 161.480469 200.242188 160.871094 199.875 C 160.828125 199.957031 160.800781 200.027344 160.773438 200.113281 C 160.519531 200.976562 159.164062 200.609375 159.417969 199.734375 C 159.480469 199.539062 159.5625 199.347656 159.664062 199.171875 C 159.046875 198.816406 158.425781 198.492188 157.769531 198.226562 C 156.945312 197.898438 157.308594 196.53125 158.152344 196.875 C 159.980469 197.609375 161.664062 198.792969 163.425781 199.699219 C 164.929688 200.480469 166.179688 201.132812 166.773438 202.8125 C 167.0625 203.609375 167.488281 204.449219 167.886719 205.3125 C 168.007812 205.429688 168.0625 205.578125 168.078125 205.722656 C 168.679688 207.058594 169.175781 208.4375 169 209.835938 C 168.75 211.808594 168.472656 213.792969 168.15625 215.75 C 167.824219 217.835938 167.464844 219.96875 166.9375 222.050781 C 167.164062 221.855469 167.382812 221.664062 167.597656 221.46875 C 168.695312 220.445312 169.355469 219.394531 169.789062 217.949219 C 170.050781 217.085938 171.402344 217.453125 171.140625 218.332031 C 170.777344 219.554688 170.304688 220.679688 169.433594 221.625 C 168.585938 222.539062 167.351562 223.28125 166.644531 224.3125 C 166.523438 224.492188 166.351562 224.585938 166.179688 224.617188 C 165.71875 225.957031 165.175781 227.261719 164.476562 228.492188 C 164.027344 229.289062 163.457031 230.164062 162.929688 231.058594 C 164.058594 230.894531 165.234375 230.933594 166.347656 230.976562 C 168.761719 231.085938 171.089844 231.242188 173.511719 231.058594 C 174.414062 230.988281 174.410156 232.398438 173.511719 232.464844 C 171.660156 232.605469 169.828125 232.628906 167.976562 232.539062 C 166.121094 232.449219 163.878906 231.988281 162.078125 232.695312 C 161.765625 233.371094 161.523438 234.058594 161.441406 234.71875 C 161.367188 235.277344 161.265625 235.816406 161.175781 236.355469 C 162.839844 235.964844 164.875 235.832031 166.421875 236.21875 C 168.039062 236.628906 169.769531 236.671875 171.34375 237.269531 C 172.546875 237.71875 173.75 238.246094 175.035156 238.40625 C 177.976562 238.769531 181.933594 238.898438 184.503906 240.875 C 184.703125 240.585938 184.980469 240.292969 185.351562 239.972656 C 185.699219 239.664062 186.203125 239.597656 186.738281 239.679688 C 186.851562 239.472656 186.992188 239.230469 187.15625 239 C 187.148438 238.980469 187.144531 238.972656 187.144531 238.957031 C 187.117188 237.964844 187.117188 236.628906 187.910156 236 C 187.878906 235.550781 187.773438 235.277344 188.078125 234.777344 C 188.550781 234.007812 189.203125 235.039062 189.210938 233.292969 C 189.21875 231.492188 189.617188 229.523438 189.113281 227.808594 C 188.53125 225.832031 187.277344 224.316406 185.898438 222.847656 C 185.28125 222.1875 186.273438 221.1875 186.890625 221.847656 C 187.121094 222.101562 187.371094 222.363281 187.617188 222.628906 C 187.707031 219.851562 187.066406 217.507812 185.945312 214.808594 C 184.789062 211.992188 184.375 208.980469 183.203125 206.15625 C 182.855469 205.320312 184.214844 204.960938 184.558594 205.785156 C 185.863281 208.9375 186.617188 212.339844 187.679688 215.582031 C 188.183594 217.125 188.84375 218.589844 189.203125 220.171875 C 189.464844 221.308594 189.050781 222.835938 188.929688 223.953125 C 188.914062 224.007812 188.910156 224.066406 188.894531 224.117188 C 189.460938 224.863281 189.941406 225.660156 190.195312 226.523438 C 190.882812 228.847656 190.625 230.125 190.617188 232.527344 C 190.613281 233.511719 190.65625 234.988281 189.648438 235.582031 C 189.644531 235.582031 189.644531 235.589844 189.644531 235.589844 C 190.382812 235.578125 190.964844 235.699219 191.488281 235.925781 C 191.511719 234.210938 191.546875 232.113281 191.207031 230.253906 C 190.910156 228.609375 190.605469 227.054688 190.414062 225.390625 C 190.320312 224.488281 191.722656 224.480469 191.824219 225.371094 C 192.023438 227.175781 192.386719 228.945312 192.710938 230.730469 C 193.074219 232.734375 192.894531 236.8125 192.894531 236.8125 C 192.894531 236.820312 192.886719 236.824219 192.886719 236.828125 C 193.316406 237.1875 193.757812 237.609375 194.28125 238.074219 C 194.429688 238.203125 194.570312 238.332031 194.714844 238.453125 C 195.023438 236.550781 194.367188 234.660156 194.027344 232.789062 C 193.765625 231.335938 193.773438 229.855469 193.617188 228.394531 C 193.527344 227.492188 194.929688 227.5 195.03125 228.394531 C 195.253906 230.597656 195.339844 232.714844 195.910156 234.867188 C 196.304688 236.34375 196.351562 238.007812 195.921875 239.484375 C 196.03125 239.5625 196.125 239.648438 196.222656 239.730469 C 196.484375 239.433594 196.816406 239.203125 197.109375 238.917969 C 197.753906 238.289062 198.746094 239.28125 198.09375 239.910156 C 197.839844 240.164062 197.507812 240.371094 197.277344 240.652344 C 198.363281 241.636719 199.339844 242.699219 200.199219 244.226562 C 200.414062 244.601562 200.613281 245 200.8125 245.402344 C 200.824219 245.402344 200.835938 245.398438 200.847656 245.398438 C 200.835938 245.410156 200.835938 245.414062 200.824219 245.421875 C 200.824219 245.425781 200.824219 245.425781 200.824219 245.433594 C 200.847656 245.410156 200.875 245.371094 200.921875 245.3125 C 200.941406 245.28125 200.964844 245.25 201 245.210938 C 201.082031 245.121094 201.167969 245.042969 201.269531 244.960938 C 201.441406 244.820312 201.640625 244.691406 201.8125 244.546875 C 202.207031 244.226562 202.578125 243.949219 203.050781 243.789062 C 203.910156 243.492188 204.28125 244.859375 203.433594 245.144531 C 202.972656 245.296875 202.605469 245.722656 202.222656 245.992188 C 201.914062 246.21875 201.753906 246.53125 201.414062 246.675781 C 201.703125 247.316406 201.964844 247.957031 202.210938 248.578125 C 203.808594 248.554688 205.328125 248.484375 206.753906 248.769531 C 208.121094 249.050781 212.121094 249.914062 211.597656 247.5625 C 211.554688 247.367188 211.589844 247.199219 211.660156 247.0625 C 211.582031 246.695312 211.457031 246.335938 211.25 245.972656 C 210.675781 244.953125 209.988281 243.960938 209.34375 242.984375 C 208.847656 242.226562 210.058594 241.519531 210.554688 242.273438 C 211.328125 243.445312 212.03125 244.652344 212.839844 245.796875 C 213.34375 246.496094 213.230469 247.902344 213.183594 248.84375 C 214.191406 248.597656 215.230469 248.554688 216.277344 248.578125 Z M 217.03125 244.8125 C 217.410156 246.027344 218.320312 248.203125 217.570312 249.492188 C 216.933594 250.582031 213.679688 250.03125 212.746094 250.429688 C 212.421875 250.570312 212.117188 250.464844 211.914062 250.269531 C 211.542969 250.386719 211.070312 250.449219 210.480469 250.449219 C 207.542969 250.476562 201.566406 249.988281 201.566406 249.988281 C 201.546875 249.988281 201.527344 249.976562 201.511719 249.976562 C 198.929688 250.554688 196.058594 250.542969 193.433594 250.898438 C 192.359375 251.042969 190.863281 251.441406 189.800781 250.929688 C 189.191406 250.640625 188.667969 250.238281 188.121094 249.855469 C 188.019531 249.871094 187.902344 249.863281 187.800781 249.84375 C 186.527344 249.902344 184.941406 250.527344 183.605469 250.527344 C 180.648438 250.527344 177.707031 250.601562 174.75 250.660156 C 171.710938 250.722656 168.625 250.503906 165.582031 250.753906 C 164.761719 250.828125 164.078125 250.90625 163.4375 250.824219 C 163.09375 250.941406 162.683594 250.929688 162.335938 250.847656 C 162.109375 250.789062 161.953125 250.648438 161.789062 250.503906 C 158.152344 251.777344 153.21875 251.445312 149.480469 250.890625 C 148.0625 250.683594 146.777344 250.238281 145.40625 249.921875 C 143.765625 249.542969 142.246094 249.847656 140.617188 250.132812 C 139.796875 250.285156 138.105469 250.660156 137.351562 249.992188 C 136.648438 249.371094 136.597656 248.496094 136.597656 247.601562 C 136.597656 246.699219 137.019531 245.746094 137.003906 244.769531 C 136.992188 244.097656 136.945312 243.613281 137.253906 243.003906 C 138.355469 240.78125 138.738281 239.605469 140.617188 237.847656 C 140.617188 237.839844 140.621094 237.839844 140.621094 237.839844 C 140.4375 237.019531 140.925781 235.796875 141.019531 235.050781 C 141.363281 232.519531 142.234375 230.125 142.183594 227.554688 C 142.117188 224.402344 142.484375 221.320312 142.902344 218.246094 C 142.773438 218.027344 142.773438 217.757812 143.003906 217.546875 C 143.472656 214.140625 143.964844 210.734375 143.988281 207.234375 C 143.863281 207.019531 143.753906 206.777344 143.667969 206.53125 C 143.546875 206.457031 143.460938 206.347656 143.460938 206.199219 C 143.460938 206.023438 143.464844 205.859375 143.464844 205.683594 C 143.464844 205.679688 143.464844 205.671875 143.460938 205.660156 C 143.453125 205.59375 143.460938 205.527344 143.472656 205.464844 C 143.523438 202.261719 143.976562 200.460938 145.714844 197.8125 C 147.332031 195.347656 149.503906 192.390625 151.671875 190.398438 C 154.417969 187.867188 156.707031 185.34375 158.957031 182.351562 C 160.414062 180.410156 160.917969 178.859375 160.917969 176.433594 C 160.917969 174.992188 160.847656 173.578125 160.996094 172.152344 C 160.382812 172.25 159.765625 172.238281 159.125 172.050781 C 158.894531 171.984375 158.664062 171.824219 158.460938 171.613281 C 158.339844 171.675781 158.191406 171.691406 158.050781 171.675781 C 157.90625 171.792969 157.714844 171.839844 157.46875 171.75 C 156.304688 171.328125 155.546875 170.027344 155.078125 168.714844 C 155.070312 168.714844 155.070312 168.714844 155.066406 168.714844 C 153.835938 168.746094 149.984375 167.125 149.660156 165.828125 C 149.433594 164.910156 149.0625 164.34375 149.253906 163.457031 C 149.171875 163.316406 149.136719 163.136719 149.203125 162.929688 C 149.382812 162.367188 148.882812 160.785156 148.878906 160.207031 C 148.863281 159.023438 148.527344 157.941406 148.367188 156.796875 C 148.179688 155.449219 147.714844 154.054688 148.285156 152.734375 C 148.433594 152.375 148.558594 151.953125 148.667969 151.5 C 148.539062 151.421875 148.429688 151.304688 148.367188 151.132812 C 148.046875 150.28125 146.625 149.621094 146.84375 148.539062 C 147.050781 147.472656 147.523438 146.421875 147.652344 145.355469 C 147.832031 143.929688 147.535156 142.5625 147.558594 141.148438 C 147.597656 139.628906 147.90625 138.238281 148.136719 136.753906 C 148.175781 136.519531 148.289062 136.378906 148.441406 136.300781 C 148.238281 135.210938 148.394531 134.234375 149.695312 133.886719 C 150.273438 133.734375 150.894531 133.773438 151.484375 133.949219 C 152.441406 131.621094 156.023438 130.289062 157.769531 128.785156 C 159.511719 127.292969 163.414062 126.46875 165.621094 127.082031 C 165.949219 127.171875 166.089844 127.265625 166.121094 127.355469 C 166.910156 126.941406 169.015625 126.804688 169.738281 126.996094 C 170.175781 127.121094 170.628906 127.339844 171.058594 127.601562 C 171.085938 127.597656 171.113281 127.589844 171.148438 127.585938 C 172.109375 127.460938 173.09375 127.457031 174.070312 127.558594 C 174.054688 127.433594 174.070312 127.304688 174.128906 127.171875 C 174.738281 125.75 176.109375 124.460938 177.59375 124.019531 C 178.652344 123.699219 179.410156 125.066406 179.9375 126.03125 C 180.488281 125.144531 181.34375 124.425781 182.339844 125.015625 C 182.976562 125.386719 183.355469 126.449219 183.648438 127.089844 C 184.644531 129.296875 185.644531 129.242188 187.378906 130.207031 C 188.949219 131.082031 192.023438 132.085938 192.570312 134.082031 C 192.855469 135.121094 192.894531 136.40625 192.894531 137.472656 C 192.894531 137.4375 193.027344 137.589844 193.199219 137.804688 C 193.382812 136.652344 192.796875 135.613281 192.996094 134.492188 C 193.050781 134.160156 193.382812 134.007812 193.675781 133.976562 C 194.5625 133.867188 195.277344 134.695312 195.882812 135.238281 C 196.085938 135.429688 196.320312 135.621094 196.554688 135.820312 C 196.648438 135.753906 196.765625 135.703125 196.917969 135.699219 C 199.941406 135.609375 200.046875 138.695312 199.941406 141.070312 C 199.859375 142.898438 199.765625 144.757812 199.601562 146.578125 C 199.453125 148.195312 199.710938 149.300781 198.890625 150.765625 C 198.851562 150.839844 198.800781 150.894531 198.746094 150.945312 C 198.234375 152.5 197.195312 153.929688 196.601562 155.421875 C 196.035156 156.847656 195.535156 158.367188 194.597656 159.59375 C 194.550781 159.792969 194.460938 159.976562 194.292969 160.140625 C 193.921875 160.515625 193.101562 160.734375 192.605469 160.882812 C 191.808594 161.121094 191.332031 161.699219 190.589844 162.027344 C 188.898438 162.765625 187.519531 163.972656 185.902344 164.769531 C 186.171875 167.328125 185.648438 169.867188 185.167969 172.378906 C 184.355469 176.585938 182.429688 182.964844 177.550781 184.058594 C 177.246094 184.132812 176.941406 184.199219 176.644531 184.273438 C 176.515625 185.828125 176.226562 187.300781 176.003906 188.816406 C 178.207031 188.917969 180.300781 191.226562 181.90625 192.476562 C 185.058594 194.929688 185.277344 197.933594 187.15625 201.324219 C 188.851562 204.398438 191.234375 206.933594 192.949219 209.976562 C 194.839844 213.335938 195.800781 217.011719 198.054688 220.234375 C 198.113281 220.316406 198.148438 220.402344 198.167969 220.484375 C 199.976562 222.792969 202.070312 224.914062 203.882812 227.101562 C 205.761719 229.378906 208.109375 231.835938 208.46875 234.867188 C 208.621094 234.867188 208.785156 234.933594 208.917969 235.089844 C 209.613281 235.886719 210.582031 236.5625 211.117188 237.496094 C 211.796875 238.699219 212.410156 238.960938 213.503906 239.726562 C 215.371094 241.027344 216.359375 242.671875 217.03125 244.8125 Z M 162.019531 180.625 C 162.019531 180.542969 162.136719 180.804688 162.148438 180.816406 C 162.210938 180.90625 162.273438 181 162.335938 181.089844 C 162.46875 181.300781 162.609375 181.507812 162.761719 181.710938 C 163.019531 182.050781 163.25 182.402344 163.363281 182.824219 C 163.605469 183.699219 162.25 184.070312 162.011719 183.195312 C 161.882812 182.734375 161.472656 182.339844 161.210938 181.945312 C 161.203125 181.933594 161.199219 181.921875 161.195312 181.910156 C 159.6875 183.929688 158.140625 186.078125 156.386719 187.941406 C 160.210938 187.484375 164.441406 190.019531 167.074219 192.25 C 169.488281 194.308594 172.390625 196.8125 175.238281 198.25 C 177.492188 199.378906 176.984375 195.925781 176.582031 194.855469 C 176.257812 193.992188 175.875 193.289062 175.347656 192.605469 C 175.234375 193.023438 175.109375 193.441406 174.953125 193.839844 C 174.621094 194.671875 173.261719 194.304688 173.597656 193.457031 C 174.65625 190.816406 174.976562 187.460938 175.222656 184.585938 C 173.863281 184.84375 172.554688 184.894531 171.097656 184.234375 C 169.304688 183.417969 166.761719 182.117188 165.46875 180.601562 C 163.734375 178.550781 163.675781 175.894531 162.347656 173.714844 C 162.378906 174.976562 162.519531 176.25 162.300781 177.46875 C 162.183594 178.089844 162.132812 179.324219 161.917969 180.328125 C 161.976562 180.410156 162.011719 180.507812 162.019531 180.625 Z M 143.820312 229.714844 C 143.742188 229.882812 143.617188 230.019531 143.460938 230.089844 C 143.417969 230.5625 143.359375 231.027344 143.242188 231.492188 C 143.066406 232.1875 142.648438 235.535156 142.089844 236.785156 C 143.21875 236.101562 144.441406 235.539062 145.421875 234.550781 C 146.0625 233.910156 147.050781 234.910156 146.410156 235.550781 C 145.746094 236.21875 145.035156 237.058594 144.253906 237.59375 C 143.167969 238.339844 141.808594 238.421875 140.898438 239.511719 C 139.746094 240.886719 138.363281 242.816406 138.40625 244.769531 C 138.417969 245.582031 138.507812 246.46875 138.199219 247.246094 C 137.03125 250.15625 143.144531 248.214844 144.769531 248.347656 C 145.765625 248.433594 146.679688 248.941406 147.648438 249.144531 C 149.425781 249.511719 151.210938 249.695312 153.019531 249.71875 C 155.382812 249.746094 158.121094 250.019531 160.480469 249.445312 C 160.457031 249.398438 160.433594 249.359375 160.414062 249.316406 C 159.851562 249.234375 159.371094 248.835938 158.230469 248.355469 C 157.253906 247.945312 156.21875 247.527344 155.332031 246.941406 C 153.769531 245.898438 152.15625 245.144531 150.378906 244.53125 C 149.144531 244.105469 149.902344 243.460938 147.597656 243.378906 C 145.101562 243.28125 142.386719 243.4375 139.898438 243.714844 C 138.996094 243.816406 139.007812 242.40625 139.898438 242.304688 C 142.757812 241.984375 145.792969 241.789062 148.664062 242.078125 C 150.242188 242.238281 151.953125 243.613281 153.417969 244.195312 C 154.371094 244.578125 155.296875 245.050781 156.21875 245.550781 C 156.242188 245.519531 156.257812 245.496094 156.28125 245.464844 C 156.003906 245.097656 155.828125 244.613281 155.488281 244.316406 C 155.175781 244.046875 154.828125 243.871094 154.511719 243.621094 C 153.605469 242.878906 152.773438 242.035156 151.734375 241.476562 C 150.941406 241.042969 151.648438 239.832031 152.449219 240.257812 C 153.476562 240.816406 154.28125 241.632812 155.179688 242.363281 C 155.914062 242.957031 156.5 243.320312 157.050781 244.105469 C 157.625 244.921875 158.382812 245.347656 159.0625 246.03125 C 159.355469 246.328125 159.535156 246.671875 159.730469 246.996094 C 159.941406 247.316406 160.160156 247.625 160.53125 247.839844 C 160.554688 247.851562 160.582031 247.867188 160.601562 247.878906 C 160.867188 248 161.152344 248.089844 161.429688 248.199219 C 161.519531 247.484375 161.582031 246.789062 161.34375 246.148438 C 160.957031 245.074219 161.066406 242.902344 160.496094 242.03125 C 160.136719 241.46875 159.691406 240.9375 159.414062 240.363281 C 159.226562 240.199219 159.164062 239.964844 159.214844 239.753906 C 159.148438 239.421875 159.148438 239.078125 159.265625 238.699219 C 159.292969 238.632812 159.320312 238.570312 159.355469 238.519531 C 159.625 237.015625 159.980469 235.515625 160.078125 233.984375 C 160.132812 233.183594 160.414062 231.914062 161.046875 231.335938 C 162.847656 229.722656 164.152344 226.839844 165.011719 224.007812 C 162.144531 221.304688 158.753906 219.042969 155.242188 217.292969 C 153.578125 216.457031 151.519531 216.015625 149.722656 216.285156 C 148.242188 216.507812 145.746094 217.304688 144.34375 218.28125 C 144.09375 219.273438 143.859375 220.261719 143.824219 221.277344 C 143.804688 222.191406 143.847656 223.121094 143.683594 224.03125 C 143.4375 225.429688 143.523438 226.851562 143.535156 228.269531 C 143.703125 228.183594 143.875 228.105469 144.039062 228.015625 C 144.824219 227.566406 145.535156 228.777344 144.746094 229.234375 C 144.558594 229.34375 144.347656 229.417969 144.15625 229.515625 C 144.050781 229.566406 143.953125 229.621094 143.859375 229.6875 C 143.859375 229.691406 143.847656 229.699219 143.835938 229.699219 C 143.84375 229.6875 143.847656 229.675781 143.847656 229.652344 C 143.84375 229.675781 143.832031 229.699219 143.820312 229.714844 "/>
</g>
<path style=" stroke:none;fill-rule:nonzero;fill:rgb(100%,100%,100%);fill-opacity:1;" d="M 209.03125 240.050781 C 209.507812 240.832031 208.300781 241.53125 207.820312 240.769531 C 207.679688 240.539062 207.582031 240.304688 207.441406 240.078125 C 206.957031 239.304688 208.175781 238.597656 208.648438 239.367188 C 208.789062 239.585938 208.894531 239.832031 209.03125 240.050781 "/>
<path style=" stroke:none;fill-rule:nonzero;fill:rgb(100%,100%,100%);fill-opacity:1;" d="M 207.96875 241.621094 C 208.863281 241.605469 208.871094 242.992188 207.984375 243.019531 C 207.675781 243.214844 207.238281 243.058594 207.058594 242.761719 C 206.851562 242.402344 206.996094 242.007812 207.3125 241.789062 C 207.507812 241.65625 207.738281 241.621094 207.96875 241.621094 "/>
<path style=" stroke:none;fill-rule:nonzero;fill:rgb(100%,100%,100%);fill-opacity:1;" d="M 205.703125 242.25 C 206.472656 241.765625 207.183594 242.984375 206.417969 243.46875 C 206.1875 243.609375 205.917969 243.714844 205.71875 243.890625 C 205.050781 244.5 204.0625 243.511719 204.730469 242.902344 C 205.023438 242.621094 205.371094 242.464844 205.703125 242.25 "/>
<path style=" stroke:none;fill-rule:nonzero;fill:rgb(100%,100%,100%);fill-opacity:1;" d="M 204.996094 230.792969 C 205.199219 231.152344 205.046875 231.527344 204.742188 231.757812 C 204.664062 231.808594 204.585938 231.851562 204.511719 231.910156 C 204.207031 232.140625 203.730469 231.964844 203.550781 231.65625 C 203.339844 231.304688 203.5 230.921875 203.804688 230.699219 C 203.878906 230.640625 203.957031 230.597656 204.027344 230.542969 C 204.339844 230.308594 204.816406 230.488281 204.996094 230.792969 "/>
<path style=" stroke:none;fill-rule:nonzero;fill:rgb(100%,100%,100%);fill-opacity:1;" d="M 203.265625 234.90625 C 204.039062 234.429688 204.75 235.652344 203.976562 236.121094 C 203.625 236.335938 203.292969 236.566406 202.910156 236.734375 C 202.5625 236.878906 202.164062 236.84375 201.949219 236.484375 C 201.78125 236.183594 201.851562 235.667969 202.199219 235.515625 C 202.582031 235.355469 202.921875 235.117188 203.265625 234.90625 "/>
<path style=" stroke:none;fill-rule:nonzero;fill:rgb(100%,100%,100%);fill-opacity:1;" d="M 201.796875 231.214844 C 202.175781 231.191406 202.5 231.550781 202.5 231.914062 C 202.5 232.3125 202.175781 232.601562 201.796875 232.617188 C 201.644531 232.628906 201.503906 232.746094 201.386719 232.828125 C 200.632812 233.335938 199.925781 232.113281 200.671875 231.617188 C 201.027344 231.382812 201.371094 231.234375 201.796875 231.214844 "/>
<path style=" stroke:none;fill-rule:nonzero;fill:rgb(100%,100%,100%);fill-opacity:1;" d="M 199.839844 237.042969 C 200.640625 236.617188 201.347656 237.835938 200.546875 238.265625 C 200.253906 238.421875 200.003906 238.644531 199.710938 238.792969 C 198.914062 239.226562 198.207031 238.011719 199 237.582031 C 199.296875 237.425781 199.546875 237.207031 199.839844 237.042969 "/>
<path style=" stroke:none;fill-rule:nonzero;fill:rgb(100%,100%,100%);fill-opacity:1;" d="M 199.398438 232.492188 C 199.640625 232.734375 199.695312 233.25 199.398438 233.480469 C 199.101562 233.714844 198.808594 233.851562 198.476562 233.992188 C 198.476562 233.992188 198.476562 233.992188 198.460938 233.996094 C 198.453125 233.996094 198.449219 234.003906 198.441406 234.003906 C 198.449219 234.003906 198.449219 233.996094 198.453125 234.003906 C 198.417969 234.019531 198.347656 234.050781 198.347656 234.050781 C 198.289062 234.074219 198.234375 234.109375 198.1875 234.136719 C 198.183594 234.148438 198.144531 234.179688 198.121094 234.203125 C 198.121094 234.222656 198.054688 234.332031 198.054688 234.339844 C 197.90625 234.6875 197.394531 234.761719 197.09375 234.589844 C 196.734375 234.378906 196.695312 233.980469 196.84375 233.621094 C 196.992188 233.28125 197.296875 233 197.636719 232.835938 C 197.753906 232.777344 197.875 232.730469 198.003906 232.671875 C 198.003906 232.671875 198.109375 232.632812 198.132812 232.617188 C 198.1875 232.59375 198.25 232.570312 198.300781 232.539062 C 198.300781 232.539062 198.386719 232.488281 198.417969 232.46875 C 198.417969 232.476562 198.40625 232.476562 198.402344 232.492188 C 198.707031 232.25 199.09375 232.1875 199.398438 232.492188 "/>
<path style=" stroke:none;fill-rule:nonzero;fill:rgb(100%,100%,100%);fill-opacity:1;" d="M 199.75 227.167969 C 199.75 227.53125 199.429688 227.902344 199.054688 227.875 C 198.890625 227.863281 198.730469 227.808594 198.589844 227.796875 C 198.210938 227.761719 197.886719 227.5 197.886719 227.089844 C 197.886719 226.734375 198.210938 226.355469 198.589844 226.386719 C 198.746094 226.40625 198.914062 226.453125 199.054688 226.464844 C 199.429688 226.496094 199.75 226.757812 199.75 227.167969 "/>
<path style=" stroke:none;fill-rule:nonzero;fill:rgb(100%,100%,100%);fill-opacity:1;" d="M 197.183594 225.957031 C 198.042969 226.214844 197.675781 227.574219 196.800781 227.308594 C 196.300781 227.15625 195.507812 227.097656 195.402344 226.445312 C 195.339844 226.0625 195.492188 225.679688 195.890625 225.574219 C 196.148438 225.496094 196.472656 225.601562 196.644531 225.820312 C 196.6875 225.832031 196.726562 225.847656 196.773438 225.859375 C 196.90625 225.890625 197.046875 225.917969 197.183594 225.957031 "/>
<path style=" stroke:none;fill-rule:nonzero;fill:rgb(100%,100%,100%);fill-opacity:1;" d="M 194.394531 224.894531 C 194.789062 225.714844 193.585938 226.429688 193.1875 225.613281 C 192.804688 224.828125 192.957031 224.097656 192.65625 223.300781 C 192.242188 222.199219 191.90625 221.0625 191.589844 219.933594 C 190.964844 217.699219 190.625 215.351562 189.757812 213.195312 C 189.425781 212.355469 190.777344 211.992188 191.113281 212.824219 C 191.976562 214.980469 192.371094 217.304688 192.945312 219.558594 C 193.167969 220.453125 193.429688 221.371094 193.753906 222.234375 C 194.046875 223.039062 194.035156 224.15625 194.394531 224.894531 "/>
<path style=" stroke:none;fill-rule:nonzero;fill:rgb(100%,100%,100%);fill-opacity:1;" d="M 186.929688 227.628906 L 186.929688 228.242188 C 186.929688 228.773438 185.539062 228.839844 185.183594 228.441406 C 185.160156 228.675781 185.121094 228.894531 185.019531 229.136719 C 184.867188 229.484375 184.355469 229.558594 184.058594 229.386719 C 183.699219 229.171875 183.660156 228.773438 183.804688 228.417969 C 183.863281 228.289062 183.792969 227.898438 183.789062 227.703125 C 183.777344 226.882812 184.917969 226.816406 185.144531 227.488281 C 185.40625 227.023438 186.929688 227.074219 186.929688 227.628906 "/>
<path style=" stroke:none;fill-rule:nonzero;fill:rgb(100%,100%,100%);fill-opacity:1;" d="M 184.035156 223.382812 C 184.316406 223.609375 184.457031 223.964844 184.261719 224.3125 C 184.082031 224.609375 183.597656 224.800781 183.292969 224.558594 C 183.074219 224.390625 182.929688 224.261719 182.828125 223.992188 C 182.679688 223.632812 182.976562 223.214844 183.3125 223.121094 C 183.613281 223.039062 183.867188 223.160156 184.035156 223.382812 "/>
<path style=" stroke:none;fill-rule:nonzero;fill:rgb(100%,100%,100%);fill-opacity:1;" d="M 183.230469 234.292969 C 184.113281 234.074219 184.484375 235.433594 183.613281 235.65625 C 182.226562 236 180.792969 236.183594 179.386719 236.410156 C 178.242188 236.601562 177.339844 237.390625 176.183594 237.4375 C 175.273438 237.480469 175.28125 236.074219 176.183594 236.027344 C 176.859375 236 177.554688 235.433594 178.203125 235.214844 C 178.746094 235.039062 179.265625 235.039062 179.8125 234.914062 C 180.945312 234.671875 182.113281 234.578125 183.230469 234.292969 "/>
<path style=" stroke:none;fill-rule:nonzero;fill:rgb(100%,100%,100%);fill-opacity:1;" d="M 183.269531 211.710938 C 183.878906 211.710938 183.878906 212.933594 183.269531 212.933594 C 182.050781 212.933594 182.050781 211.710938 183.269531 211.710938 "/>
<path style=" stroke:none;fill-rule:nonzero;fill:rgb(100%,100%,100%);fill-opacity:1;" d="M 183.230469 213.734375 C 183.484375 214.027344 183.511719 214.449219 183.230469 214.734375 C 182.976562 214.992188 182.496094 215.019531 182.238281 214.734375 C 182.199219 214.679688 182.082031 214.539062 182.074219 214.539062 C 181.308594 214.0625 182.011719 212.84375 182.789062 213.320312 C 182.972656 213.4375 183.09375 213.578125 183.230469 213.734375 "/>
<path style=" stroke:none;fill-rule:nonzero;fill:rgb(100%,100%,100%);fill-opacity:1;" d="M 182.984375 201.761719 C 183.050781 202.664062 181.648438 202.660156 181.574219 201.761719 C 181.550781 201.390625 181.300781 201.03125 181.128906 200.71875 C 180.90625 200.316406 180.664062 199.925781 180.453125 199.511719 C 180.039062 198.714844 181.246094 197.996094 181.664062 198.804688 C 182.152344 199.746094 182.898438 200.671875 182.984375 201.761719 "/>
<path style=" stroke:none;fill-rule:nonzero;fill:rgb(100%,100%,100%);fill-opacity:1;" d="M 182.472656 224.605469 C 183.121094 225.242188 182.125 226.238281 181.476562 225.601562 C 181.46875 225.585938 181.445312 225.574219 181.433594 225.558594 C 181.421875 225.550781 181.417969 225.550781 181.40625 225.550781 C 181.027344 225.492188 180.824219 225.019531 180.917969 224.683594 C 181.027344 224.285156 181.40625 224.140625 181.78125 224.195312 C 182.050781 224.238281 182.28125 224.414062 182.472656 224.605469 "/>
<path style=" stroke:none;fill-rule:nonzero;fill:rgb(100%,100%,100%);fill-opacity:1;" d="M 181.695312 228.933594 C 182.488281 228.492188 183.199219 229.710938 182.40625 230.152344 C 181.730469 230.523438 181.035156 230.847656 180.3125 231.113281 C 179.921875 231.253906 179.574219 231.503906 179.167969 231.601562 C 178.792969 231.695312 178.414062 231.71875 178.042969 231.832031 C 177.171875 232.089844 176.808594 230.726562 177.671875 230.46875 C 178.03125 230.367188 178.449219 230.367188 178.792969 230.242188 C 179.101562 230.140625 179.355469 229.96875 179.652344 229.855469 C 180.359375 229.601562 181.039062 229.300781 181.695312 228.933594 "/>
<path style=" stroke:none;fill-rule:nonzero;fill:rgb(100%,100%,100%);fill-opacity:1;" d="M 181.78125 215.042969 C 182.429688 215.675781 181.433594 216.675781 180.792969 216.03125 C 180.695312 215.941406 180.574219 215.917969 180.757812 215.933594 C 180.371094 215.898438 180.050781 215.644531 180.050781 215.234375 C 180.050781 214.875 180.371094 214.488281 180.757812 214.527344 C 181.183594 214.570312 181.484375 214.734375 181.78125 215.042969 "/>
<path style=" stroke:none;fill-rule:nonzero;fill:rgb(100%,100%,100%);fill-opacity:1;" d="M 181.660156 232.796875 C 181.753906 233.132812 181.585938 233.429688 181.308594 233.585938 C 181.21875 233.65625 181.128906 233.703125 181.019531 233.738281 C 180.652344 233.867188 180.253906 233.597656 180.152344 233.25 C 180.0625 232.917969 180.226562 232.617188 180.5 232.460938 C 180.589844 232.398438 180.6875 232.347656 180.792969 232.308594 C 181.160156 232.179688 181.5625 232.449219 181.660156 232.796875 "/>
<path style=" stroke:none;fill-rule:nonzero;fill:rgb(100%,100%,100%);fill-opacity:1;" d="M 180.179688 216.238281 C 180.539062 216.363281 180.777344 216.714844 180.664062 217.101562 C 180.574219 217.453125 180.167969 217.722656 179.808594 217.59375 C 179.601562 217.523438 179.402344 217.433594 179.195312 217.359375 C 178.835938 217.238281 178.601562 216.890625 178.707031 216.496094 C 178.796875 216.148438 179.207031 215.878906 179.566406 216.007812 C 179.773438 216.074219 179.972656 216.160156 180.179688 216.238281 "/>
<path style=" stroke:none;fill-rule:nonzero;fill:rgb(100%,100%,100%);fill-opacity:1;" d="M 180.5625 225.984375 C 180.816406 226.277344 180.847656 226.691406 180.5625 226.976562 C 180.3125 227.230469 179.820312 227.273438 179.574219 226.976562 C 179.464844 226.851562 179.386719 226.734375 179.3125 226.589844 C 179.296875 226.5625 179.28125 226.535156 179.269531 226.5 C 179.011719 226.398438 178.832031 226.1875 178.832031 225.867188 C 178.832031 225.519531 179.152344 225.125 179.539062 225.160156 C 179.910156 225.203125 180.171875 225.34375 180.394531 225.652344 C 180.445312 225.726562 180.488281 225.800781 180.527344 225.878906 C 180.546875 225.921875 180.6875 226.128906 180.5625 225.984375 "/>
<path style=" stroke:none;fill-rule:nonzero;fill:rgb(100%,100%,100%);fill-opacity:1;" d="M 178.335938 217.550781 C 178.367188 217.5625 178.464844 217.636719 178.464844 217.636719 C 178.53125 217.6875 178.601562 217.742188 178.660156 217.796875 C 178.953125 218.039062 178.910156 218.539062 178.660156 218.785156 C 178.382812 219.070312 177.976562 219.039062 177.683594 218.800781 C 177.71875 218.835938 177.550781 218.707031 177.554688 218.714844 C 177.488281 218.667969 177.421875 218.617188 177.359375 218.5625 C 177.066406 218.308594 177.109375 217.820312 177.359375 217.5625 C 177.640625 217.28125 178.039062 217.320312 178.332031 217.546875 C 178.332031 217.546875 178.335938 217.546875 178.335938 217.550781 "/>
<path style=" stroke:none;fill-rule:nonzero;fill:rgb(100%,100%,100%);fill-opacity:1;" d="M 177.234375 227.574219 C 177.226562 227.574219 177.21875 227.527344 177.207031 227.511719 C 176.601562 226.851562 177.589844 225.855469 178.203125 226.523438 C 178.476562 226.820312 178.617188 227.140625 178.636719 227.554688 C 178.652344 227.9375 178.300781 228.257812 177.933594 228.257812 C 177.542969 228.257812 177.261719 227.949219 177.234375 227.574219 "/>
<path style=" stroke:none;fill-rule:nonzero;fill:rgb(100%,100%,100%);fill-opacity:1;" d="M 178.390625 205.589844 C 179.613281 205.589844 179.613281 207.421875 178.390625 207.421875 C 178.195312 207.421875 178.039062 207.378906 177.902344 207.292969 C 177.964844 207.367188 178.03125 207.445312 178.078125 207.53125 C 178.539062 208.308594 177.324219 209.023438 176.875 208.238281 C 176.820312 208.148438 176.835938 208.164062 176.738281 208.109375 C 175.957031 207.652344 176.667969 206.441406 177.453125 206.890625 C 177.515625 206.933594 177.566406 206.984375 177.628906 207.03125 C 177.28125 206.492188 177.539062 205.589844 178.390625 205.589844 "/>
<path style=" stroke:none;fill-rule:nonzero;fill:rgb(100%,100%,100%);fill-opacity:1;" d="M 178.234375 241.644531 C 179.128906 241.78125 178.78125 243.132812 177.898438 243.003906 C 176.007812 242.722656 172.292969 241.875 172.292969 241.875 C 171.683594 241.875 171.683594 240.464844 172.292969 240.464844 C 174.734375 240.464844 176.207031 241.339844 178.234375 241.644531 "/>
<path style=" stroke:none;fill-rule:nonzero;fill:rgb(100%,100%,100%);fill-opacity:1;" d="M 178 233.335938 C 178.105469 233.722656 177.875 234.082031 177.515625 234.199219 C 177.21875 234.292969 176.941406 234.367188 176.632812 234.378906 C 176.257812 234.402344 175.9375 234.046875 175.9375 233.679688 C 175.9375 233.273438 176.257812 232.992188 176.632812 232.96875 C 176.8125 232.964844 176.976562 232.898438 177.132812 232.847656 C 177.5 232.722656 177.902344 232.980469 178 233.335938 "/>
<path style=" stroke:none;fill-rule:nonzero;fill:rgb(100%,100%,100%);fill-opacity:1;" d="M 177.132812 209.144531 C 177.75 209.808594 176.761719 210.804688 176.140625 210.144531 C 176.066406 210.066406 176.003906 209.976562 175.9375 209.898438 C 175.898438 209.855469 175.851562 209.820312 175.816406 209.78125 C 175.566406 209.734375 175.351562 209.574219 175.273438 209.296875 C 175.183594 208.953125 175.390625 208.496094 175.761719 208.425781 C 176.410156 208.320312 176.738281 208.726562 177.132812 209.144531 "/>
<path style=" stroke:none;fill-rule:nonzero;fill:rgb(100%,100%,100%);fill-opacity:1;" d="M 176.828125 219.246094 C 177.46875 219.890625 176.476562 220.890625 175.835938 220.246094 C 175.761719 220.164062 175.683594 220.09375 175.609375 220.015625 C 174.96875 219.367188 175.957031 218.375 176.601562 219.019531 C 176.679688 219.09375 176.75 219.171875 176.828125 219.246094 "/>
<path style=" stroke:none;fill-rule:nonzero;fill:rgb(100%,100%,100%);fill-opacity:1;" d="M 176.398438 228.101562 C 177.132812 228.59375 176.4375 229.792969 175.671875 229.304688 C 175.398438 229.136719 175.195312 228.886719 175.042969 228.597656 C 174.617188 227.796875 175.824219 227.082031 176.25 227.886719 C 176.269531 227.910156 176.320312 228.019531 176.335938 228.039062 C 176.367188 228.070312 176.386719 228.09375 176.398438 228.101562 "/>
<path style=" stroke:none;fill-rule:nonzero;fill:rgb(100%,100%,100%);fill-opacity:1;" d="M 175.6875 210.347656 C 176.039062 210.488281 176.28125 210.8125 176.171875 211.210938 C 176.082031 211.550781 175.667969 211.839844 175.304688 211.699219 C 174.886719 211.53125 174.617188 211.289062 174.355469 210.917969 C 174.132812 210.605469 174.300781 210.136719 174.605469 209.953125 C 174.957031 209.75 175.347656 209.890625 175.566406 210.207031 C 175.585938 210.230469 175.6875 210.335938 175.6875 210.347656 "/>
<path style=" stroke:none;fill-rule:nonzero;fill:rgb(100%,100%,100%);fill-opacity:1;" d="M 175.414062 220.613281 C 175.839844 221.390625 174.699219 222.085938 174.238281 221.378906 C 173.988281 221.277344 173.800781 221.050781 173.800781 220.742188 C 173.800781 220.386719 174.121094 220.003906 174.503906 220.035156 C 174.914062 220.074219 175.214844 220.246094 175.414062 220.613281 "/>
<path style=" stroke:none;fill-rule:nonzero;fill:rgb(100%,100%,100%);fill-opacity:1;" d="M 175.003906 212.441406 C 175.640625 213.078125 174.648438 214.074219 174.007812 213.433594 C 173.734375 213.15625 173.46875 212.867188 173.289062 212.523438 C 172.863281 211.722656 174.074219 211.011719 174.503906 211.816406 C 174.628906 212.058594 174.808594 212.242188 175.003906 212.441406 "/>
<path style=" stroke:none;fill-rule:nonzero;fill:rgb(100%,100%,100%);fill-opacity:1;" d="M 174.121094 233.75 C 174.734375 233.75 174.734375 234.976562 174.121094 234.976562 L 173.511719 234.976562 C 172.902344 234.976562 172.902344 233.75 173.511719 233.75 L 174.121094 233.75 "/>
<path style=" stroke:none;fill-rule:nonzero;fill:rgb(100%,100%,100%);fill-opacity:1;" d="M 173.511719 228.300781 C 174.734375 228.300781 173.511719 229.710938 173.511719 229.710938 C 172.902344 229.710938 172.902344 228.300781 173.511719 228.300781 "/>
<path style=" stroke:none;fill-rule:nonzero;fill:rgb(100%,100%,100%);fill-opacity:1;" d="M 173.398438 243.867188 C 174.261719 244.117188 173.890625 245.476562 173.019531 245.21875 C 172.582031 245.097656 172.148438 244.949219 171.683594 244.9375 C 170.78125 244.925781 170.78125 243.519531 171.683594 243.53125 C 172.277344 243.539062 172.828125 243.703125 173.398438 243.867188 "/>
<path style=" stroke:none;fill-rule:nonzero;fill:rgb(100%,100%,100%);fill-opacity:1;" d="M 173.351562 221.703125 C 173.476562 222.0625 173.210938 222.472656 172.863281 222.566406 C 172.53125 222.65625 172.234375 222.492188 172.074219 222.21875 C 172.011719 222.128906 171.964844 222.039062 171.921875 221.921875 C 171.792969 221.5625 172.0625 221.152344 172.40625 221.058594 C 172.746094 220.96875 173.035156 221.132812 173.195312 221.410156 C 173.261719 221.496094 173.3125 221.585938 173.351562 221.703125 "/>
<path style=" stroke:none;fill-rule:nonzero;fill:rgb(100%,100%,100%);fill-opacity:1;" d="M 172.902344 201.914062 C 174.121094 201.914062 174.121094 203.136719 172.902344 203.136719 C 172.292969 203.136719 172.292969 201.914062 172.902344 201.914062 "/>
<path style=" stroke:none;fill-rule:nonzero;fill:rgb(100%,100%,100%);fill-opacity:1;" d="M 172.480469 212.488281 C 172.867188 212.589844 173.046875 212.976562 172.96875 213.351562 C 172.878906 213.773438 172.746094 214.179688 172.585938 214.578125 C 172.445312 214.929688 172.121094 215.175781 171.726562 215.066406 C 171.382812 214.976562 171.097656 214.554688 171.238281 214.203125 C 171.390625 213.804688 171.53125 213.394531 171.613281 212.976562 C 171.699219 212.601562 172.128906 212.390625 172.480469 212.488281 "/>
<path style=" stroke:none;fill-rule:nonzero;fill:rgb(100%,100%,100%);fill-opacity:1;" d="M 172.636719 203.101562 C 173.28125 203.738281 172.289062 204.734375 171.648438 204.097656 C 171.578125 204.035156 171.5 203.929688 171.421875 203.894531 C 171.066406 203.753906 170.824219 203.429688 170.933594 203.03125 C 171.023438 202.6875 171.441406 202.390625 171.792969 202.535156 C 172.121094 202.664062 172.382812 202.851562 172.636719 203.101562 "/>
<path style=" stroke:none;fill-rule:nonzero;fill:rgb(100%,100%,100%);fill-opacity:1;" d="M 171.859375 151.632812 C 172.671875 151.246094 173.382812 152.457031 172.574219 152.855469 C 171.882812 153.183594 171.140625 153.429688 170.582031 153.96875 C 169.925781 154.59375 168.933594 153.601562 169.585938 152.96875 C 170.25 152.335938 171.046875 152.03125 171.859375 151.632812 "/>
<path style=" stroke:none;fill-rule:nonzero;fill:rgb(100%,100%,100%);fill-opacity:1;" d="M 171.824219 234.480469 C 171.941406 234.890625 171.6875 235.203125 171.332031 235.347656 C 171.035156 235.476562 170.726562 235.441406 170.421875 235.5 C 170.050781 235.578125 169.664062 235.398438 169.5625 235.011719 C 169.460938 234.660156 169.667969 234.214844 170.050781 234.144531 C 170.355469 234.082031 170.675781 234.113281 170.960938 233.992188 C 171.316406 233.84375 171.730469 234.148438 171.824219 234.480469 "/>
<path style=" stroke:none;fill-rule:nonzero;fill:rgb(100%,100%,100%);fill-opacity:1;" d="M 171.074219 148.648438 C 171.683594 148.648438 171.683594 149.871094 171.074219 149.871094 C 169.855469 149.871094 169.855469 148.648438 171.074219 148.648438 "/>
<path style=" stroke:none;fill-rule:nonzero;fill:rgb(100%,100%,100%);fill-opacity:1;" d="M 170.074219 203.8125 C 170.738281 205.730469 171.242188 206.8125 171.242188 209.261719 C 171.242188 209.875 169.835938 209.875 169.835938 209.261719 C 169.835938 206.8125 169.285156 205.929688 168.726562 204.1875 C 168.128906 202.355469 166.707031 201.019531 165.589844 199.511719 C 165.050781 198.789062 166.269531 198.160156 166.796875 198.878906 C 168.054688 200.566406 169.371094 201.789062 170.074219 203.8125 "/>
<path style=" stroke:none;fill-rule:nonzero;fill:rgb(100%,100%,100%);fill-opacity:1;" d="M 169.242188 224.570312 C 169.242188 223.34375 171.074219 223.34375 171.074219 224.570312 C 171.074219 225.179688 169.242188 225.179688 169.242188 224.570312 "/>
<path style=" stroke:none;fill-rule:nonzero;fill:rgb(100%,100%,100%);fill-opacity:1;" d="M 167.949219 130.414062 C 168.855469 130.378906 168.847656 131.789062 167.949219 131.828125 C 166.039062 131.917969 164.710938 132.957031 163.023438 133.757812 C 161.800781 134.347656 160.855469 135.332031 159.90625 136.289062 C 159.265625 136.925781 158.273438 135.9375 158.910156 135.292969 C 159.542969 134.664062 160.164062 134.042969 160.792969 133.421875 C 161.464844 132.753906 162.53125 132.488281 163.347656 132.074219 C 164.078125 131.707031 164.761719 131.039062 165.539062 130.796875 C 166.308594 130.542969 167.132812 130.457031 167.949219 130.414062 "/>
<path style=" stroke:none;fill-rule:nonzero;fill:rgb(100%,100%,100%);fill-opacity:1;" d="M 167.414062 225.179688 C 167.414062 223.953125 168.632812 223.953125 168.632812 225.179688 C 168.632812 226.40625 167.414062 226.40625 167.414062 225.179688 "/>
<path style=" stroke:none;fill-rule:nonzero;fill:rgb(100%,100%,100%);fill-opacity:1;" d="M 166.859375 194.964844 C 167.707031 195.203125 167.335938 196.542969 166.464844 196.320312 C 166.4375 196.3125 166.269531 196.261719 166.222656 196.242188 C 166.222656 196.242188 166.230469 196.242188 166.234375 196.242188 C 166.230469 196.242188 166.21875 196.234375 166.214844 196.234375 C 165.363281 195.988281 165.734375 194.652344 166.613281 194.886719 C 166.628906 194.894531 166.785156 194.941406 166.839844 194.960938 C 166.847656 194.960938 166.855469 194.964844 166.859375 194.964844 "/>
<path style=" stroke:none;fill-rule:nonzero;fill:rgb(100%,100%,100%);fill-opacity:1;" d="M 166.550781 196.71875 C 166.898438 196.875 166.980469 197.375 166.796875 197.675781 C 166.589844 198.03125 166.191406 198.09375 165.839844 197.929688 C 165.699219 197.867188 165.550781 197.816406 165.398438 197.769531 C 165.039062 197.65625 164.804688 197.289062 164.910156 196.90625 C 165.003906 196.550781 165.410156 196.296875 165.773438 196.414062 C 166.039062 196.503906 166.296875 196.59375 166.550781 196.71875 "/>
<path style=" stroke:none;fill-rule:nonzero;fill:rgb(100%,100%,100%);fill-opacity:1;" d="M 166.859375 194.964844 C 166.855469 194.964844 166.847656 194.960938 166.839844 194.960938 C 166.847656 194.960938 166.855469 194.960938 166.859375 194.964844 "/>
<path style=" stroke:none;fill-rule:nonzero;fill:rgb(100%,100%,100%);fill-opacity:1;" d="M 164.976562 185.382812 C 165.582031 185.382812 165.582031 186.605469 164.976562 186.605469 L 164.363281 186.605469 C 163.757812 186.605469 163.757812 185.382812 164.363281 185.382812 C 164.976562 185.382812 164.976562 185.382812 164.976562 185.382812 "/>
<path style=" stroke:none;fill-rule:nonzero;fill:rgb(100%,100%,100%);fill-opacity:1;" d="M 161.976562 202.453125 C 162.757812 202.910156 162.046875 204.128906 161.265625 203.671875 C 160.195312 203.039062 158.929688 202.386719 157.699219 202.171875 C 156.273438 201.925781 154.921875 201.335938 153.460938 201.242188 C 152.566406 201.183594 152.558594 199.777344 153.460938 199.832031 C 156.316406 200.011719 159.519531 201.007812 161.976562 202.453125 "/>
<path style=" stroke:none;fill-rule:nonzero;fill:rgb(100%,100%,100%);fill-opacity:1;" d="M 161.351562 223.15625 C 161.597656 223.449219 161.644531 223.859375 161.351562 224.144531 C 161.109375 224.398438 160.601562 224.445312 160.367188 224.144531 C 160.171875 223.90625 159.941406 223.785156 159.664062 223.644531 C 159.320312 223.472656 159.230469 222.992188 159.414062 222.679688 C 159.613281 222.332031 160.035156 222.257812 160.378906 222.433594 C 160.742188 222.617188 161.089844 222.828125 161.351562 223.15625 "/>
<path style=" stroke:none;fill-rule:nonzero;fill:rgb(100%,100%,100%);fill-opacity:1;" d="M 158.652344 229.03125 C 159.078125 228.230469 160.289062 228.945312 159.867188 229.75 C 159.632812 230.179688 159.285156 230.597656 158.855469 230.835938 C 158.058594 231.28125 157.355469 230.0625 158.140625 229.625 C 158.371094 229.496094 158.523438 229.277344 158.652344 229.03125 "/>
<path style=" stroke:none;fill-rule:nonzero;fill:rgb(100%,100%,100%);fill-opacity:1;" d="M 159.121094 192.117188 C 159.121094 192.488281 158.804688 192.839844 158.417969 192.824219 C 158.214844 192.8125 158.011719 192.753906 157.808594 192.746094 C 157.425781 192.722656 157.109375 192.441406 157.109375 192.042969 C 157.109375 191.671875 157.425781 191.316406 157.808594 191.335938 C 158.019531 191.347656 158.21875 191.402344 158.417969 191.414062 C 158.804688 191.433594 159.121094 191.71875 159.121094 192.117188 "/>
<path style=" stroke:none;fill-rule:nonzero;fill:rgb(100%,100%,100%);fill-opacity:1;" d="M 157.535156 193.34375 C 158.332031 192.730469 159.035156 194.109375 158.242188 194.53125 C 157.890625 194.71875 157.578125 194.691406 157.203125 194.675781 C 156.296875 194.640625 156.296875 193.25 157.203125 193.289062 C 157.296875 193.292969 157.394531 193.34375 157.496094 193.34375 C 157.511719 193.34375 157.523438 193.34375 157.535156 193.34375 "/>
<path style=" stroke:none;fill-rule:nonzero;fill:rgb(100%,100%,100%);fill-opacity:1;" d="M 157.699219 239.730469 C 158.574219 239.5 158.945312 240.835938 158.097656 241.082031 C 158.089844 241.082031 158.078125 241.089844 158.074219 241.089844 C 158.078125 241.089844 158.085938 241.089844 158.085938 241.089844 C 158.039062 241.113281 157.867188 241.160156 157.84375 241.167969 C 156.972656 241.390625 156.601562 240.050781 157.449219 239.816406 C 157.457031 239.816406 157.460938 239.808594 157.46875 239.808594 C 157.523438 239.789062 157.679688 239.742188 157.699219 239.730469 "/>
<path style=" stroke:none;fill-rule:nonzero;fill:rgb(100%,100%,100%);fill-opacity:1;" d="M 157.015625 196.117188 C 157.011719 196.125 157.011719 196.117188 157.011719 196.117188 C 157.011719 196.113281 157.007812 196.113281 157.007812 196.113281 L 157 196.113281 C 156.972656 196.105469 156.945312 196.097656 156.886719 196.105469 C 156.816406 196.105469 156.742188 196.113281 156.667969 196.113281 C 156.191406 196.128906 155.828125 195.605469 156.035156 195.164062 C 156.128906 194.949219 156.375 194.847656 156.675781 194.832031 C 157.480469 194.789062 158.621094 195.359375 157.925781 196.0625 C 157.664062 196.324219 157.296875 196.3125 157.015625 196.117188 "/>
<path style=" stroke:none;fill-rule:nonzero;fill:rgb(100%,100%,100%);fill-opacity:1;" d="M 157.15625 227.5625 C 157.511719 227.660156 157.765625 228.066406 157.644531 228.429688 C 157.597656 228.59375 157.527344 228.753906 157.523438 228.929688 C 157.5 229.3125 157.21875 229.632812 156.816406 229.632812 C 156.449219 229.632812 156.097656 229.3125 156.113281 228.929688 C 156.132812 228.625 156.203125 228.347656 156.296875 228.050781 C 156.414062 227.691406 156.773438 227.460938 157.15625 227.5625 "/>
<path style=" stroke:none;fill-rule:nonzero;fill:rgb(100%,100%,100%);fill-opacity:1;" d="M 157.46875 239.808594 C 157.460938 239.808594 157.457031 239.816406 157.449219 239.816406 C 157.457031 239.808594 157.460938 239.808594 157.46875 239.808594 "/>
<path style=" stroke:none;fill-rule:nonzero;fill:rgb(100%,100%,100%);fill-opacity:1;" d="M 156.855469 238.277344 C 157.191406 238.367188 157.480469 238.785156 157.339844 239.148438 C 157.179688 239.5625 156.910156 239.988281 156.488281 240.175781 C 156.132812 240.328125 155.734375 240.285156 155.527344 239.921875 C 155.351562 239.625 155.425781 239.109375 155.78125 238.960938 C 155.863281 238.921875 155.972656 238.808594 155.992188 238.765625 C 156.128906 238.410156 156.457031 238.164062 156.855469 238.277344 "/>
<path style=" stroke:none;fill-rule:nonzero;fill:rgb(100%,100%,100%);fill-opacity:1;" d="M 157.246094 220.363281 C 158.027344 220.816406 157.328125 222.035156 156.539062 221.578125 C 156.433594 221.511719 156.335938 221.523438 156.207031 221.519531 C 155.304688 221.519531 155.304688 220.109375 156.207031 220.109375 C 156.585938 220.117188 156.921875 220.171875 157.246094 220.363281 "/>
<path style=" stroke:none;fill-rule:nonzero;fill:rgb(100%,100%,100%);fill-opacity:1;" d="M 156 228.472656 C 156.027344 229.378906 154.628906 229.375 154.589844 228.472656 C 154.582031 228.21875 154.527344 227.960938 154.515625 227.703125 C 154.488281 226.796875 155.886719 226.804688 155.921875 227.703125 C 155.933594 227.960938 155.988281 228.21875 156 228.472656 "/>
<path style=" stroke:none;fill-rule:nonzero;fill:rgb(100%,100%,100%);fill-opacity:1;" d="M 154.417969 237.082031 C 155.058594 236.4375 156.046875 237.429688 155.410156 238.074219 C 155.113281 238.375 154.796875 238.675781 154.433594 238.878906 C 153.632812 239.3125 152.925781 238.09375 153.71875 237.660156 C 153.992188 237.507812 154.199219 237.296875 154.417969 237.082031 "/>
<path style=" stroke:none;fill-rule:nonzero;fill:rgb(100%,100%,100%);fill-opacity:1;" d="M 154.898438 197.058594 C 155.011719 197.457031 154.773438 197.789062 154.414062 197.925781 C 154.082031 198.054688 153.753906 198.148438 153.4375 198.316406 C 153.15625 198.460938 152.878906 198.625 152.601562 198.773438 C 151.796875 199.191406 151.085938 197.96875 151.886719 197.554688 C 152.257812 197.363281 152.601562 197.128906 152.988281 196.960938 C 153.335938 196.8125 153.6875 196.707031 154.039062 196.570312 C 154.398438 196.425781 154.808594 196.71875 154.898438 197.058594 "/>
<path style=" stroke:none;fill-rule:nonzero;fill:rgb(100%,100%,100%);fill-opacity:1;" d="M 153.5 225.804688 C 153.851562 225.902344 154.105469 226.304688 153.988281 226.667969 C 153.914062 226.894531 153.824219 227.128906 153.761719 227.359375 C 153.699219 227.5625 153.6875 227.769531 153.605469 227.972656 C 153.464844 228.328125 153.144531 228.570312 152.742188 228.464844 C 152.40625 228.371094 152.117188 227.953125 152.257812 227.59375 C 152.335938 227.398438 152.339844 227.183594 152.40625 226.976562 C 152.488281 226.753906 152.558594 226.523438 152.636719 226.292969 C 152.753906 225.933594 153.117188 225.691406 153.5 225.804688 "/>
<path style=" stroke:none;fill-rule:nonzero;fill:rgb(100%,100%,100%);fill-opacity:1;" d="M 154.242188 219.824219 C 154.242188 220.164062 153.921875 220.574219 153.542969 220.527344 C 152.929688 220.445312 152.328125 220.304688 151.710938 220.292969 C 150.808594 220.285156 150.808594 218.875 151.710938 218.886719 C 152.328125 218.898438 152.929688 219.039062 153.542969 219.117188 C 153.921875 219.167969 154.242188 219.402344 154.242188 219.824219 "/>
<path style=" stroke:none;fill-rule:nonzero;fill:rgb(100%,100%,100%);fill-opacity:1;" d="M 152.027344 236.320312 C 152.257812 235.441406 153.605469 235.816406 153.375 236.695312 C 153.328125 236.886719 153.261719 237.070312 153.257812 237.273438 C 153.222656 238.175781 151.824219 238.175781 151.847656 237.273438 C 151.859375 236.941406 151.941406 236.632812 152.027344 236.320312 "/>
<path style=" stroke:none;fill-rule:nonzero;fill:rgb(100%,100%,100%);fill-opacity:1;" d="M 150.222656 235.78125 C 150.84375 235.117188 151.835938 236.117188 151.21875 236.773438 C 151.132812 236.863281 151.058594 236.960938 151.015625 237.078125 C 150.878906 237.4375 150.546875 237.675781 150.148438 237.566406 C 149.8125 237.476562 149.53125 237.066406 149.660156 236.699219 C 149.796875 236.355469 149.96875 236.054688 150.222656 235.78125 "/>
<path style=" stroke:none;fill-rule:nonzero;fill:rgb(100%,100%,100%);fill-opacity:1;" d="M 150.949219 218.445312 C 150.949219 220.894531 150.949219 227.015625 150.949219 227.015625 C 150.949219 227.628906 149.121094 227.628906 149.121094 227.015625 C 147.902344 227.015625 147.902344 225.179688 149.121094 225.179688 C 149.121094 223.515625 149.121094 221.894531 149.121094 220.40625 C 149.109375 220.414062 149.097656 220.417969 149.074219 220.421875 C 148.820312 220.515625 148.570312 220.636719 148.316406 220.726562 C 147.957031 220.855469 147.546875 220.585938 147.457031 220.238281 C 147.34375 219.847656 147.582031 219.503906 147.941406 219.375 C 148.199219 219.285156 148.449219 219.160156 148.703125 219.070312 C 148.84375 219.019531 148.984375 219.027344 149.121094 219.078125 C 149.121094 218.871094 149.121094 218.644531 149.121094 218.445312 C 149.121094 217.21875 150.949219 217.21875 150.949219 218.445312 "/>
<path style=" stroke:none;fill-rule:nonzero;fill:rgb(100%,100%,100%);fill-opacity:1;" d="M 149.382812 229.246094 C 149.714844 229.339844 150.015625 229.753906 149.867188 230.113281 C 149.609375 230.769531 149.507812 231.414062 149.003906 231.953125 C 148.390625 232.617188 147.394531 231.621094 148.019531 230.960938 C 148.320312 230.628906 148.355469 230.148438 148.523438 229.738281 C 148.664062 229.378906 148.980469 229.136719 149.382812 229.246094 "/>
<path style=" stroke:none;fill-rule:nonzero;fill:rgb(100%,100%,100%);fill-opacity:1;" d="M 149.535156 239.121094 C 150.394531 239.394531 150.03125 240.757812 149.160156 240.472656 C 147.84375 240.050781 146.429688 240.480469 145.082031 240.5 C 144.175781 240.515625 144.175781 239.109375 145.082031 239.089844 C 146.585938 239.0625 148.0625 238.644531 149.535156 239.121094 "/>
<path style=" stroke:none;fill-rule:nonzero;fill:rgb(100%,100%,100%);fill-opacity:1;" d="M 148.089844 235.089844 C 148.710938 234.421875 149.699219 235.421875 149.082031 236.085938 C 148.996094 236.175781 148.921875 236.273438 148.882812 236.390625 C 148.75 236.746094 148.414062 236.992188 148.019531 236.878906 C 147.675781 236.785156 147.394531 236.371094 147.527344 236.011719 C 147.664062 235.664062 147.832031 235.367188 148.089844 235.089844 "/>
<path style=" stroke:none;fill-rule:nonzero;fill:rgb(100%,100%,100%);fill-opacity:1;" d="M 146.257812 226.898438 C 146.910156 226.277344 147.90625 227.269531 147.253906 227.898438 C 146.910156 228.222656 146.539062 228.441406 146.070312 228.488281 C 145.6875 228.519531 145.371094 228.136719 145.371094 227.78125 C 145.371094 227.371094 145.691406 227.117188 146.070312 227.078125 C 145.929688 227.089844 146.125 227.015625 146.164062 226.992188 C 146.191406 226.953125 146.257812 226.898438 146.257812 226.898438 "/>
<path style=" stroke:none;fill-rule:nonzero;fill:rgb(100%,100%,100%);fill-opacity:1;" d="M 146.113281 219.757812 C 146.988281 219.542969 147.363281 220.898438 146.484375 221.113281 C 146.191406 221.1875 145.992188 221.382812 145.804688 221.625 C 145.5625 221.921875 145.058594 221.867188 144.8125 221.625 C 144.515625 221.328125 144.578125 220.925781 144.8125 220.625 C 145.136719 220.214844 145.601562 219.886719 146.113281 219.757812 "/>
<path style="fill:none;stroke-width:2.257736;stroke-linecap:butt;stroke-linejoin:miter;stroke:rgb(96.078491%,98.039246%,96.469116%);stroke-opacity:1;stroke-miterlimit:4;" d="M 64.002713 67.556422 C 75.554797 67.556422 84.549589 59.535588 84.549589 46.275171 C 84.549589 33.077253 75.554797 25.05642 64.002713 25.05642 C 52.330837 25.05642 43.398545 33.077253 43.398545 46.275171 C 43.398545 59.535588 52.330837 67.556422 64.002713 67.556422 Z M 64.002713 62.59288 C 55.419379 62.59288 48.627712 56.712672 48.627712 46.275171 C 48.627712 35.957462 55.419379 30.082462 64.002713 30.082462 C 72.528755 30.082462 79.289172 35.957462 79.289172 46.275171 C 79.289172 56.712672 72.528755 62.59288 64.002713 62.59288 Z M 93.690215 66.999131 L 98.83084 66.999131 L 98.83084 21.848086 L 93.690215 21.848086 Z M 121.705842 67.587672 C 130.028759 67.587672 136.257926 61.796005 136.257926 52.535588 C 136.257926 43.337671 130.054801 37.514754 121.705842 37.514754 C 113.388133 37.514754 107.158966 43.337671 107.158966 52.535588 C 107.158966 61.796005 113.476675 67.587672 121.705842 67.587672 Z M 121.6798 63.327255 C 116.330842 63.327255 112.21105 59.09288 112.21105 52.535588 C 112.21105 46.014754 116.330842 41.780379 121.6798 41.780379 C 127.086051 41.780379 131.231884 46.014754 131.231884 52.535588 C 131.231884 59.09288 127.086051 63.327255 121.6798 63.327255 Z M 149.601677 43.046004 L 149.487094 38.103295 L 144.575635 38.103295 L 144.575635 66.999131 L 149.664177 66.999131 L 149.664177 51.566838 C 149.664177 45.072046 153.044386 42.572046 158.685011 42.572046 L 158.685011 37.780379 C 154.632927 37.842879 151.101677 39.957462 149.601677 43.046004 Z M 165.570428 33.108503 L 169.507928 33.108503 L 162.101678 23.525169 L 158.987094 25.936628 Z M 164.981886 66.999131 L 170.09647 66.999131 L 170.09647 38.103295 L 164.981886 38.103295 Z M 164.981886 66.999131 " transform="matrix(0.75,0,0,0.75,3.134687,138.344405)"/>
<path style="fill:none;stroke-width:1.580216;stroke-linecap:butt;stroke-linejoin:miter;stroke:rgb(100%,100%,100%);stroke-opacity:1;stroke-miterlimit:4;" d="M 45.919056 13.034705 L 40.731556 6.326371 L 38.554473 8.013871 L 43.15864 13.034705 Z M 53.611765 44.998249 L 57.460724 44.998249 L 46.78364 16.034705 L 42.37739 16.034705 L 31.705514 44.998249 L 35.549264 44.998249 L 38.018014 38.065957 L 51.122182 38.065957 Z M 39.189889 34.815956 L 44.580515 19.73783 L 49.97114 34.815956 Z M 72.710725 45.388874 C 78.366975 45.388874 82.934684 42.716999 82.934684 37.164915 C 82.934684 31.279498 77.648225 29.920123 72.97635 28.685748 C 69.210725 27.722206 65.924266 26.815956 65.924266 23.586789 C 65.924266 20.170122 68.965933 18.83158 71.971141 18.83158 C 75.325308 18.83158 78.16385 20.315955 79.044059 23.565956 L 82.481559 22.680539 C 81.393017 17.826372 76.929475 15.64408 71.825308 15.64408 C 66.684683 15.64408 62.221141 18.30033 62.221141 23.649289 C 62.221141 28.993039 66.705516 30.373248 71.231558 31.58679 C 75.262808 32.675331 79.106559 33.623248 79.169059 37.263873 C 79.231559 40.904498 76.044058 42.222207 72.773225 42.222207 C 68.840933 42.222207 65.861766 40.289915 64.976349 36.852415 L 61.356557 37.716998 C 62.340933 42.508665 66.684683 45.388874 72.710725 45.388874 Z M 72.278433 53.722208 C 73.575308 53.722208 74.66385 52.675333 74.66385 51.315957 C 74.66385 50.019082 73.575308 48.930541 72.278433 48.930541 C 70.960725 48.930541 69.872183 50.019082 69.872183 51.315957 C 69.872183 52.675333 70.960725 53.722208 72.278433 53.722208 Z M 101.29406 13.034705 L 96.10656 6.326371 L 93.929476 8.013871 L 98.533643 13.034705 Z M 108.986769 44.998249 L 112.830519 44.998249 L 102.158643 16.034705 L 97.752393 16.034705 L 87.075309 44.998249 L 90.924268 44.998249 L 93.393018 38.065957 L 106.497185 38.065957 Z M 94.564893 34.815956 L 99.955518 19.73783 L 105.346144 34.815956 Z M 132.856562 29.878456 C 135.184687 28.769081 136.455521 26.487831 136.455521 23.706581 C 136.455521 19.180539 133.064896 16.034705 127.898228 16.034705 L 119.116978 16.034705 L 119.116978 44.998249 L 130.387812 44.998249 C 135.387812 44.998249 138.575313 41.748249 138.575313 37.144082 C 138.575313 33.14929 136.273229 30.743039 132.856562 29.878456 Z M 133.002396 23.935747 C 133.002396 26.565956 131.210729 28.727414 128.559687 28.727414 L 122.67427 28.727414 L 122.67427 19.263872 L 127.877395 19.263872 C 131.090937 19.263872 133.002396 21.30033 133.002396 23.935747 Z M 129.773229 41.727415 L 122.67427 41.727415 L 122.67427 31.77429 L 129.502395 31.77429 C 132.981562 31.77429 134.997187 33.951373 134.997187 36.769082 C 134.997187 39.446165 133.085729 41.727415 129.773229 41.727415 Z M 146.403438 13.034705 L 149.137813 13.034705 L 153.768022 8.013871 L 151.564897 6.326371 Z M 145.92948 44.998249 L 149.611772 44.998249 L 149.611772 16.034705 L 145.92948 16.034705 Z M 145.92948 44.998249 " transform="matrix(0.75,0,0,0.75,187.689616,195.243503)"/>
</g>
</svg>
